<svg width="345.91249999999997px" height="70.4px" xmlns="http://www.w3.org/2000/svg" viewBox="77.04375000000002 39.8 345.91249999999997 70.4" preserveAspectRatio="xMidYMid"><defs><linearGradient id="editing-outline-gradient" x1="-0.41354545764260087" x2="1.4135454576426008" y1="0.09326335692419985" y2="0.9067366430758002"><stop offset="0" stop-color="#0a0a0a"></stop><stop offset="1" stop-color="#ffffff"></stop></linearGradient><filter id="editing-outline" x="-100%" y="-100%" width="300%" height="300%"><feMorphology in="SourceGraphic" operator="dilate" radius="1" result="outline"></feMorphology><feComposite operator="out" in="outline" in2="SourceAlpha"></feComposite></filter></defs><g filter="url(#editing-outline)"><g transform="translate(129.77998161315918, 90.52999973297119)"><path d="M2.17 0L2.17-20.99L14.63-20.99L14.63-18.20L5.86-18.20L5.86-12.34L13.08-12.34L12.62-9.52L5.86-9.52L5.86-2.79L15.10-2.79L15.10 0L2.17 0ZM17.92-21.86L21.45-22.48L21.45-13.64L21.45-13.64Q21.70-13.95 22.09-14.31L22.09-14.31L22.09-14.31Q22.48-14.66 23.06-14.97L23.06-14.97L23.06-14.97Q23.65-15.28 24.43-15.50L24.43-15.50L24.43-15.50Q25.20-15.72 26.23-15.72L26.23-15.72L26.23-15.72Q27.19-15.72 28.02-15.44L28.02-15.44L28.02-15.44Q28.86-15.16 29.47-14.63L29.47-14.63L29.47-14.63Q30.07-14.11 30.43-13.35L30.43-13.35L30.43-13.35Q30.78-12.59 30.78-11.63L30.78-11.63L30.78-11.63Q30.78-10.23 30.21-9.33L30.21-9.33L30.21-9.33Q29.64-8.43 28.92-7.91L28.92-7.91L28.92-7.91Q28.12-7.29 27.06-6.91L27.06-6.91L31.40 0L27.40 0L22.94-7.72L22.91-8.03L22.91-8.03Q23.16-8.09 23.85-8.31L23.85-8.31L23.85-8.31Q24.55-8.53 25.30-8.93L25.30-8.93L25.30-8.93Q26.04-9.33 26.61-9.94L26.61-9.94L26.61-9.94Q27.19-10.54 27.19-11.38L27.19-11.38L27.19-11.38Q27.19-12.28 26.66-12.74L26.66-12.74L26.66-12.74Q26.13-13.21 25.27-13.21L25.27-13.21L25.27-13.21Q24.09-13.21 23.34-12.74L23.34-12.74L23.34-12.74Q22.60-12.28 22.18-11.69L22.18-11.69L22.18-11.69Q21.76-11.10 21.61-10.57L21.61-10.57L21.61-10.57Q21.45-10.04 21.45-9.95L21.45-9.95L21.45 0L17.92 0L17.92-21.86ZM38.29-15.81L38.29-15.81L38.29-15.81Q39.18-15.81 40.05-15.62L40.05-15.62L40.05-15.62Q40.92-15.44 41.60-15.19L41.60-15.19L41.60-15.19Q42.41-14.91 43.09-14.60L43.09-14.60L42.04-12.18L42.04-12.18Q41.42-12.46 40.80-12.68L40.80-12.68L40.80-12.68Q40.27-12.87 39.63-13.04L39.63-13.04L39.63-13.04Q39.00-13.21 38.38-13.21L38.38-13.21L38.38-13.21Q37.67-13.21 37.15-12.87L37.15-12.87L37.15-12.87Q36.64-12.52 36.64-11.84L36.64-11.84L36.64-11.84Q36.64-10.07 39.22-9.08L39.22-9.08L39.22-9.08Q40.18-8.71 40.95-8.29L40.95-8.29L40.95-8.29Q41.73-7.87 42.27-7.32L42.27-7.32L42.27-7.32Q42.81-6.76 43.09-6.03L43.09-6.03L43.09-6.03Q43.37-5.30 43.37-4.31L43.37-4.31L43.37-4.31Q43.37-3.44 43.01-2.60L43.01-2.60L43.01-2.60Q42.66-1.77 41.96-1.12L41.96-1.12L41.96-1.12Q41.26-0.46 40.25-0.08L40.25-0.08L40.25-0.08Q39.25 0.31 37.98 0.31L37.98 0.31L37.98 0.31Q36.95 0.31 35.96 0.08L35.96 0.08L35.96 0.08Q34.97-0.15 34.18-0.43L34.18-0.43L34.18-0.43Q33.39-0.71 32.92-0.96L32.92-0.96L32.46-1.18L33.60-3.78L34.01-3.56L34.01-3.56Q34.41-3.32 35.03-3.04L35.03-3.04L35.03-3.04Q35.65-2.76 36.36-2.53L36.36-2.53L36.36-2.53Q37.08-2.29 37.67-2.29L37.67-2.29L37.67-2.29Q38.75-2.29 39.28-2.73L39.28-2.73L39.28-2.73Q39.80-3.16 39.80-3.88L39.80-3.88L39.80-3.88Q39.80-4.68 39.23-5.35L39.23-5.35L39.23-5.35Q38.66-6.01 37.51-6.45L37.51-6.45L37.51-6.45Q35.12-7.35 34.08-8.49L34.08-8.49L34.08-8.49Q33.05-9.64 33.05-11.47L33.05-11.47L33.05-11.47Q33.05-12.34 33.45-13.13L33.45-13.13L33.45-13.13Q33.85-13.92 34.55-14.52L34.55-14.52L34.55-14.52Q35.25-15.13 36.21-15.47L36.21-15.47L36.21-15.47Q37.17-15.81 38.29-15.81ZM50.31 6.23L46.78 6.85L46.78-7.81L46.78-7.81Q46.78-9.67 46.53-10.93L46.53-10.93L46.53-10.93Q46.28-12.18 46.00-12.96L46.00-12.96L46.00-12.96Q45.66-13.86 45.26-14.41L45.26-14.41L48.05-15.53L48.05-15.53Q48.42-15.16 48.73-14.60L48.73-14.60L48.73-14.60Q48.98-14.14 49.23-13.47L49.23-13.47L49.23-13.47Q49.48-12.80 49.60-11.90L49.60-11.90L49.60-11.90Q50.13-13.76 51.27-14.72L51.27-14.72L51.27-14.72Q52.42-15.69 54.47-15.69L54.47-15.69L54.47-15.69Q55.92-15.69 56.99-15.14L56.99-15.14L56.99-15.14Q58.06-14.60 58.76-13.59L58.76-13.59L58.76-13.59Q59.46-12.59 59.80-11.16L59.80-11.16L59.80-11.16Q60.14-9.73 60.14-8.00L60.14-8.00L60.14-8.00Q60.14-6.23 59.61-4.73L59.61-4.73L59.61-4.73Q59.09-3.22 58.11-2.14L58.11-2.14L58.11-2.14Q57.13-1.05 55.77-0.43L55.77-0.43L55.77-0.43Q54.41 0.19 52.73 0.19L52.73 0.19L52.73 0.19Q52.14 0.19 51.54 0.12L51.54 0.12L51.54 0.12Q50.93 0.06 50.31 0L50.31 0L50.31 6.23ZM53.88-13.21L53.88-13.21Q53.10-13.21 52.45-12.68L52.45-12.68L52.45-12.68Q51.80-12.15 51.32-11.28L51.32-11.28L51.32-11.28Q50.84-10.42 50.58-9.33L50.58-9.33L50.58-9.33Q50.31-8.25 50.31-7.10L50.31-7.10L50.31-2.63L50.31-2.63Q50.62-2.54 51.24-2.42L51.24-2.42L51.24-2.42Q51.86-2.29 52.33-2.29L52.33-2.29L52.33-2.29Q53.51-2.29 54.28-2.70L54.28-2.70L54.28-2.70Q55.06-3.10 55.52-3.81L55.52-3.81L55.52-3.81Q55.99-4.53 56.17-5.52L56.17-5.52L56.17-5.52Q56.36-6.51 56.36-7.69L56.36-7.69L56.36-7.69Q56.36-8.77 56.30-9.77L56.30-9.77L56.30-9.77Q56.23-10.76 55.97-11.53L55.97-11.53L55.97-11.53Q55.71-12.31 55.21-12.76L55.21-12.76L55.21-12.76Q54.72-13.21 53.88-13.21L53.88-13.21ZM69.41-15.81L69.41-15.81Q72.97-15.81 74.59-13.70L74.59-13.70L74.59-13.70Q76.20-11.59 76.20-7.91L76.20-7.91L76.20-7.91Q76.20-6.17 75.76-4.67L75.76-4.67L75.76-4.67Q75.33-3.16 74.45-2.06L74.45-2.06L74.45-2.06Q73.56-0.96 72.23-0.33L72.23-0.33L72.23-0.33Q70.90 0.31 69.13 0.31L69.13 0.31L69.13 0.31Q67.36 0.31 66.08-0.23L66.08-0.23L66.08-0.23Q64.79-0.78 63.95-1.80L63.95-1.80L63.95-1.80Q63.12-2.82 62.73-4.28L62.73-4.28L62.73-4.28Q62.34-5.74 62.34-7.56L62.34-7.56L62.34-7.56Q62.34-9.33 62.78-10.83L62.78-10.83L62.78-10.83Q63.21-12.34 64.09-13.44L64.09-13.44L64.09-13.44Q64.98-14.54 66.31-15.17L66.31-15.17L66.31-15.17Q67.64-15.81 69.41-15.81L69.41-15.81ZM69.10-13.21L69.10-13.21Q68.20-13.21 67.63-12.80L67.63-12.80L67.63-12.80Q67.05-12.40 66.73-11.67L66.73-11.67L66.73-11.67Q66.40-10.94 66.28-9.97L66.28-9.97L66.28-9.97Q66.15-8.99 66.15-7.87L66.15-7.87L66.15-7.87Q66.15-6.73 66.29-5.70L66.29-5.70L66.29-5.70Q66.43-4.68 66.81-3.92L66.81-3.92L66.81-3.92Q67.18-3.16 67.81-2.73L67.81-2.73L67.81-2.73Q68.45-2.29 69.44-2.29L69.44-2.29L69.44-2.29Q70.34-2.29 70.91-2.70L70.91-2.70L70.91-2.70Q71.49-3.10 71.81-3.83L71.81-3.83L71.81-3.83Q72.14-4.56 72.26-5.52L72.26-5.52L72.26-5.52Q72.39-6.48 72.39-7.59L72.39-7.59L72.39-7.59Q72.39-8.74 72.25-9.77L72.25-9.77L72.25-9.77Q72.11-10.79 71.73-11.56L71.73-11.56L71.73-11.56Q71.36-12.34 70.73-12.77L70.73-12.77L70.73-12.77Q70.09-13.21 69.10-13.21L69.10-13.21ZM86.21-12.21L86.21-12.21Q85.65-12.21 85.10-11.94L85.10-11.94L85.10-11.94Q84.54-11.66 84.10-11.18L84.10-11.18L84.10-11.18Q83.67-10.70 83.39-10.01L83.39-10.01L83.39-10.01Q83.11-9.33 83.11-8.49L83.11-8.49L83.11 0L79.58 0L79.58-7.81L79.58-7.81Q79.58-9.67 79.33-10.93L79.33-10.93L79.33-10.93Q79.08-12.18 78.80-12.96L78.80-12.96L78.80-12.96Q78.46-13.86 78.06-14.41L78.06-14.41L80.85-15.53L80.85-15.53Q81.13-15.19 81.44-14.69L81.44-14.69L81.44-14.69Q81.69-14.26 81.93-13.67L81.93-13.67L81.93-13.67Q82.18-13.08 82.34-12.28L82.34-12.28L82.34-12.28Q82.96-14.07 84.13-14.86L84.13-14.86L84.13-14.86Q85.31-15.65 86.80-15.65L86.80-15.65L86.80-15.65Q87.51-15.65 88.13-15.48L88.13-15.48L88.13-15.48Q88.75-15.31 88.72-15.31L88.72-15.31L87.73-11.87L87.73-11.87Q87.76-11.87 87.37-12.04L87.37-12.04L87.37-12.04Q86.99-12.21 86.21-12.21L86.21-12.21ZM89.34-12.93L89.34-15.44L92.13-15.44L92.75-19.07L95.67-19.72L95.67-15.44L99.48-15.44L99.05-12.93L95.67-12.93L95.67-3.75L95.67-3.75Q95.67-2.94 96.10-2.71L96.10-2.71L96.10-2.71Q96.53-2.48 97.06-2.48L97.06-2.48L97.06-2.48Q97.50-2.48 97.93-2.54L97.93-2.54L97.93-2.54Q98.36-2.60 98.70-2.70L98.70-2.70L98.70-2.70Q99.11-2.79 99.48-2.91L99.48-2.91L100.07-0.59L99.79-0.50L99.79-0.50Q99.51-0.37 98.97-0.23L98.97-0.23L98.97-0.23Q98.43-0.09 97.70 0.02L97.70 0.02L97.70 0.02Q96.97 0.12 96.10 0.12L96.10 0.12L96.10 0.12Q95.23 0.12 94.50-0.06L94.50-0.06L94.50-0.06Q93.78-0.25 93.25-0.67L93.25-0.67L93.25-0.67Q92.72-1.08 92.43-1.74L92.43-1.74L92.43-1.74Q92.13-2.39 92.13-3.35L92.13-3.35L92.13-12.93L89.34-12.93ZM113.96 6.23L110.42 6.85L110.42-7.81L110.42-7.81Q110.42-9.67 110.17-10.93L110.17-10.93L110.17-10.93Q109.93-12.18 109.65-12.96L109.65-12.96L109.65-12.96Q109.31-13.86 108.90-14.41L108.90-14.41L111.69-15.53L111.69-15.53Q112.07-15.16 112.38-14.60L112.38-14.60L112.38-14.60Q112.62-14.14 112.87-13.47L112.87-13.47L112.87-13.47Q113.12-12.80 113.24-11.90L113.24-11.90L113.24-11.90Q113.77-13.76 114.92-14.72L114.92-14.72L114.92-14.72Q116.06-15.69 118.11-15.69L118.11-15.69L118.11-15.69Q119.57-15.69 120.64-15.14L120.64-15.14L120.64-15.14Q121.71-14.60 122.40-13.59L122.40-13.59L122.40-13.59Q123.10-12.59 123.44-11.16L123.44-11.16L123.44-11.16Q123.78-9.73 123.78-8.00L123.78-8.00L123.78-8.00Q123.78-6.23 123.26-4.73L123.26-4.73L123.26-4.73Q122.73-3.22 121.75-2.14L121.75-2.14L121.75-2.14Q120.78-1.05 119.41-0.43L119.41-0.43L119.41-0.43Q118.05 0.19 116.37 0.19L116.37 0.19L116.37 0.19Q115.79 0.19 115.18 0.12L115.18 0.12L115.18 0.12Q114.58 0.06 113.96 0L113.96 0L113.96 6.23ZM117.52-13.21L117.52-13.21Q116.75-13.21 116.10-12.68L116.10-12.68L116.10-12.68Q115.44-12.15 114.96-11.28L114.96-11.28L114.96-11.28Q114.48-10.42 114.22-9.33L114.22-9.33L114.22-9.33Q113.96-8.25 113.96-7.10L113.96-7.10L113.96-2.63L113.96-2.63Q114.27-2.54 114.89-2.42L114.89-2.42L114.89-2.42Q115.51-2.29 115.97-2.29L115.97-2.29L115.97-2.29Q117.15-2.29 117.92-2.70L117.92-2.70L117.92-2.70Q118.70-3.10 119.16-3.81L119.16-3.81L119.16-3.81Q119.63-4.53 119.82-5.52L119.82-5.52L119.82-5.52Q120.00-6.51 120.00-7.69L120.00-7.69L120.00-7.69Q120.00-8.77 119.94-9.77L119.94-9.77L119.94-9.77Q119.88-10.76 119.61-11.53L119.61-11.53L119.61-11.53Q119.35-12.31 118.85-12.76L118.85-12.76L118.85-12.76Q118.36-13.21 117.52-13.21L117.52-13.21ZM133.83-12.21L133.83-12.21Q133.27-12.21 132.71-11.94L132.71-11.94L132.71-11.94Q132.15-11.66 131.72-11.18L131.72-11.18L131.72-11.18Q131.29-10.70 131.01-10.01L131.01-10.01L131.01-10.01Q130.73-9.33 130.73-8.49L130.73-8.49L130.73 0L127.19 0L127.19-7.81L127.19-7.81Q127.19-9.67 126.95-10.93L126.95-10.93L126.95-10.93Q126.70-12.18 126.42-12.96L126.42-12.96L126.42-12.96Q126.08-13.86 125.67-14.41L125.67-14.41L128.46-15.53L128.46-15.53Q128.74-15.19 129.05-14.69L129.05-14.69L129.05-14.69Q129.30-14.26 129.55-13.67L129.55-13.67L129.55-13.67Q129.80-13.08 129.95-12.28L129.95-12.28L129.95-12.28Q130.57-14.07 131.75-14.86L131.75-14.86L131.75-14.86Q132.93-15.65 134.42-15.65L134.42-15.65L134.42-15.65Q135.13-15.65 135.75-15.48L135.75-15.48L135.75-15.48Q136.37-15.31 136.34-15.31L136.34-15.31L135.35-11.87L135.35-11.87Q135.38-11.87 134.99-12.04L134.99-12.04L134.99-12.04Q134.60-12.21 133.83-12.21L133.83-12.21ZM143.56-15.81L143.56-15.81Q147.13-15.81 148.74-13.70L148.74-13.70L148.74-13.70Q150.35-11.59 150.35-7.91L150.35-7.91L150.35-7.91Q150.35-6.17 149.92-4.67L149.92-4.67L149.92-4.67Q149.48-3.16 148.60-2.06L148.60-2.06L148.60-2.06Q147.72-0.96 146.38-0.33L146.38-0.33L146.38-0.33Q145.05 0.31 143.28 0.31L143.28 0.31L143.28 0.31Q141.52 0.31 140.23-0.23L140.23-0.23L140.23-0.23Q138.94-0.78 138.11-1.80L138.11-1.80L138.11-1.80Q137.27-2.82 136.88-4.28L136.88-4.28L136.88-4.28Q136.49-5.74 136.49-7.56L136.49-7.56L136.49-7.56Q136.49-9.33 136.93-10.83L136.93-10.83L136.93-10.83Q137.36-12.34 138.24-13.44L138.24-13.44L138.24-13.44Q139.13-14.54 140.46-15.17L140.46-15.17L140.46-15.17Q141.79-15.81 143.56-15.81L143.56-15.81ZM143.25-13.21L143.25-13.21Q142.35-13.21 141.78-12.80L141.78-12.80L141.78-12.80Q141.21-12.40 140.88-11.67L140.88-11.67L140.88-11.67Q140.55-10.94 140.43-9.97L140.43-9.97L140.43-9.97Q140.31-8.99 140.31-7.87L140.31-7.87L140.31-7.87Q140.31-6.73 140.45-5.70L140.45-5.70L140.45-5.70Q140.59-4.68 140.96-3.92L140.96-3.92L140.96-3.92Q141.33-3.16 141.96-2.73L141.96-2.73L141.96-2.73Q142.60-2.29 143.59-2.29L143.59-2.29L143.59-2.29Q144.49-2.29 145.06-2.70L145.06-2.70L145.06-2.70Q145.64-3.10 145.96-3.83L145.96-3.83L145.96-3.83Q146.29-4.56 146.41-5.52L146.41-5.52L146.41-5.52Q146.54-6.48 146.54-7.59L146.54-7.59L146.54-7.59Q146.54-8.74 146.40-9.77L146.40-9.77L146.40-9.77Q146.26-10.79 145.89-11.56L145.89-11.56L145.89-11.56Q145.51-12.34 144.88-12.77L144.88-12.77L144.88-12.77Q144.24-13.21 143.25-13.21L143.25-13.21ZM153.45-0.40L153.45-15.44L156.98-15.44L156.98-0.74L156.98-0.74Q156.98 1.12 156.49 2.36L156.49 2.36L156.49 2.36Q155.99 3.60 155.23 4.45L155.23 4.45L155.23 4.45Q154.47 5.30 153.53 5.87L153.53 5.87L153.53 5.87Q152.58 6.45 151.65 6.91L151.65 6.91L150.23 4.56L150.23 4.56Q151.37 3.97 152.02 3.30L152.02 3.30L152.02 3.30Q152.68 2.63 152.99 1.97L152.99 1.97L152.99 1.97Q153.30 1.30 153.37 0.68L153.37 0.68L153.37 0.68Q153.45 0.06 153.45-0.40L153.45-0.40ZM155.25-22.32L155.25-22.32Q156.24-22.32 156.78-21.73L156.78-21.73L156.78-21.73Q157.32-21.14 157.32-20.21L157.32-20.21L157.32-20.21Q157.32-19.28 156.78-18.66L156.78-18.66L156.78-18.66Q156.24-18.04 155.16-18.04L155.16-18.04L155.16-18.04Q154.16-18.04 153.64-18.65L153.64-18.65L153.64-18.65Q153.11-19.25 153.11-20.12L153.11-20.12L153.11-20.12Q153.11-21.08 153.65-21.70L153.65-21.70L153.65-21.70Q154.19-22.32 155.25-22.32L155.25-22.32ZM160.08-7.35L160.08-7.35Q160.08-9.42 160.66-11.01L160.66-11.01L160.66-11.01Q161.23-12.59 162.24-13.66L162.24-13.66L162.24-13.66Q163.25-14.72 164.61-15.27L164.61-15.27L164.61-15.27Q165.97-15.81 167.56-15.81L167.56-15.81L167.56-15.81Q168.95-15.81 169.93-15.47L169.93-15.47L169.93-15.47Q170.90-15.13 171.52-14.54L171.52-14.54L171.52-14.54Q172.14-13.95 172.44-13.14L172.44-13.14L172.44-13.14Q172.73-12.34 172.73-11.41L172.73-11.41L172.73-11.41Q172.73-10.29 172.11-9.28L172.11-9.28L172.11-9.28Q171.49-8.28 170.33-7.52L170.33-7.52L170.33-7.52Q169.17-6.76 167.52-6.31L167.52-6.31L167.52-6.31Q165.88-5.86 163.84-5.83L163.84-5.83L163.84-5.83Q163.93-5.12 164.13-4.48L164.13-4.48L164.13-4.48Q164.33-3.84 164.72-3.36L164.72-3.36L164.72-3.36Q165.11-2.88 165.73-2.60L165.73-2.60L165.73-2.60Q166.35-2.33 167.28-2.33L167.28-2.33L167.28-2.33Q167.96-2.33 168.73-2.48L168.73-2.48L168.73-2.48Q169.51-2.63 170.16-2.85L170.16-2.85L170.16-2.85Q170.93-3.10 171.68-3.41L171.68-3.41L172.61-1.21L172.61-1.21Q171.80-0.81 170.87-0.50L170.87-0.50L170.87-0.50Q170.07-0.22 169.01 0L169.01 0L169.01 0Q167.96 0.22 166.78 0.22L166.78 0.22L166.78 0.22Q164.98 0.22 163.71-0.33L163.71-0.33L163.71-0.33Q162.44-0.87 161.63-1.86L161.63-1.86L161.63-1.86Q160.83-2.85 160.46-4.25L160.46-4.25L160.46-4.25Q160.08-5.64 160.08-7.35L160.08-7.35ZM167.28-13.39L167.28-13.39Q166.25-13.39 165.59-12.91L165.59-12.91L165.59-12.91Q164.92-12.43 164.52-11.67L164.52-11.67L164.52-11.67Q164.11-10.91 163.94-9.97L163.94-9.97L163.94-9.97Q163.77-9.02 163.74-8.06L163.74-8.06L163.74-8.06Q165.23-8.12 166.27-8.45L166.27-8.45L166.27-8.45Q167.31-8.77 167.96-9.25L167.96-9.25L167.96-9.25Q168.61-9.73 168.90-10.29L168.90-10.29L168.90-10.29Q169.20-10.85 169.20-11.41L169.20-11.41L169.20-11.41Q169.20-12.31 168.67-12.85L168.67-12.85L168.67-12.85Q168.14-13.39 167.28-13.39L167.28-13.39ZM175.68-21.86L179.21-22.48L179.21-13.64L179.21-13.64Q179.46-13.95 179.85-14.31L179.85-14.31L179.85-14.31Q180.23-14.66 180.82-14.97L180.82-14.97L180.82-14.97Q181.41-15.28 182.19-15.50L182.19-15.50L182.19-15.50Q182.96-15.72 183.99-15.72L183.99-15.72L183.99-15.72Q184.95-15.72 185.78-15.44L185.78-15.44L185.78-15.44Q186.62-15.16 187.22-14.63L187.22-14.63L187.22-14.63Q187.83-14.11 188.19-13.35L188.19-13.35L188.19-13.35Q188.54-12.59 188.54-11.63L188.54-11.63L188.54-11.63Q188.54-10.23 187.97-9.33L187.97-9.33L187.97-9.33Q187.40-8.43 186.68-7.91L186.68-7.91L186.68-7.91Q185.88-7.29 184.82-6.91L184.82-6.91L189.16 0L185.16 0L180.70-7.72L180.67-8.03L180.67-8.03Q180.92-8.09 181.61-8.31L181.61-8.31L181.61-8.31Q182.31-8.53 183.06-8.93L183.06-8.93L183.06-8.93Q183.80-9.33 184.37-9.94L184.37-9.94L184.37-9.94Q184.95-10.54 184.95-11.38L184.95-11.38L184.95-11.38Q184.95-12.28 184.42-12.74L184.42-12.74L184.42-12.74Q183.89-13.21 183.02-13.21L183.02-13.21L183.02-13.21Q181.85-13.21 181.10-12.74L181.10-12.74L181.10-12.74Q180.36-12.28 179.94-11.69L179.94-11.69L179.94-11.69Q179.52-11.10 179.37-10.57L179.37-10.57L179.37-10.57Q179.21-10.04 179.21-9.95L179.21-9.95L179.21 0L175.68 0L175.68-21.86ZM189.32-12.93L189.32-15.44L192.11-15.44L192.73-19.07L195.64-19.72L195.64-15.44L199.45-15.44L199.02-12.93L195.64-12.93L195.64-3.75L195.64-3.75Q195.64-2.94 196.08-2.71L196.08-2.71L196.08-2.71Q196.51-2.48 197.04-2.48L197.04-2.48L197.04-2.48Q197.47-2.48 197.90-2.54L197.90-2.54L197.90-2.54Q198.34-2.60 198.68-2.70L198.68-2.70L198.68-2.70Q199.08-2.79 199.45-2.91L199.45-2.91L200.04-0.59L199.76-0.50L199.76-0.50Q199.49-0.37 198.94-0.23L198.94-0.23L198.94-0.23Q198.40-0.09 197.67 0.02L197.67 0.02L197.67 0.02Q196.94 0.12 196.08 0.12L196.08 0.12L196.08 0.12Q195.21 0.12 194.48-0.06L194.48-0.06L194.48-0.06Q193.75-0.25 193.22-0.67L193.22-0.67L193.22-0.67Q192.70-1.08 192.40-1.74L192.40-1.74L192.40-1.74Q192.11-2.39 192.11-3.35L192.11-3.35L192.11-12.93L189.32-12.93ZM207.89-15.81L207.89-15.81Q211.45-15.81 213.06-13.70L213.06-13.70L213.06-13.70Q214.68-11.59 214.68-7.91L214.68-7.91L214.68-7.91Q214.68-6.17 214.24-4.67L214.24-4.67L214.24-4.67Q213.81-3.16 212.92-2.06L212.92-2.06L212.92-2.06Q212.04-0.96 210.71-0.33L210.71-0.33L210.71-0.33Q209.37 0.31 207.61 0.31L207.61 0.31L207.61 0.31Q205.84 0.31 204.55-0.23L204.55-0.23L204.55-0.23Q203.27-0.78 202.43-1.80L202.43-1.80L202.43-1.80Q201.59-2.82 201.21-4.28L201.21-4.28L201.21-4.28Q200.82-5.74 200.82-7.56L200.82-7.56L200.82-7.56Q200.82-9.33 201.25-10.83L201.25-10.83L201.25-10.83Q201.69-12.34 202.57-13.44L202.57-13.44L202.57-13.44Q203.45-14.54 204.79-15.17L204.79-15.17L204.79-15.17Q206.12-15.81 207.89-15.81L207.89-15.81ZM207.58-13.21L207.58-13.21Q206.68-13.21 206.10-12.80L206.10-12.80L206.10-12.80Q205.53-12.40 205.20-11.67L205.20-11.67L205.20-11.67Q204.88-10.94 204.75-9.97L204.75-9.97L204.75-9.97Q204.63-8.99 204.63-7.87L204.63-7.87L204.63-7.87Q204.63-6.73 204.77-5.70L204.77-5.70L204.77-5.70Q204.91-4.68 205.28-3.92L205.28-3.92L205.28-3.92Q205.65-3.16 206.29-2.73L206.29-2.73L206.29-2.73Q206.93-2.29 207.92-2.29L207.92-2.29L207.92-2.29Q208.82-2.29 209.39-2.70L209.39-2.70L209.39-2.70Q209.96-3.10 210.29-3.83L210.29-3.83L210.29-3.83Q210.61-4.56 210.74-5.52L210.74-5.52L210.74-5.52Q210.86-6.48 210.86-7.59L210.86-7.59L210.86-7.59Q210.86-8.74 210.72-9.77L210.72-9.77L210.72-9.77Q210.58-10.79 210.21-11.56L210.21-11.56L210.21-11.56Q209.84-12.34 209.20-12.77L209.20-12.77L209.20-12.77Q208.57-13.21 207.58-13.21L207.58-13.21ZM207.45-16.68L205.93-18.29L211.20-24.15L213.56-21.95L213.56-21.95Q212.63-20.80 211.56-19.84L211.56-19.84L211.56-19.84Q210.49-18.88 209.59-18.17L209.59-18.17L209.59-18.17Q208.54-17.36 207.45-16.68L207.45-16.68ZM234.36-15.44L237.96-15.44L238.02-15.19L238.02-15.19Q238.05-14.91 238.11-14.48L238.11-14.48L238.11-14.48Q238.17-14.04 238.22-13.45L238.22-13.45L238.22-13.45Q238.27-12.87 238.27-12.28L238.27-12.28L238.27-12.28Q238.27-8.83 237.88-6.45L237.88-6.45L237.88-6.45Q237.49-4.06 236.61-2.59L236.61-2.59L236.61-2.59Q235.72-1.12 234.27-0.45L234.27-0.45L234.27-0.45Q232.81 0.22 230.67 0.22L230.67 0.22L230.67 0.22Q227.66 0.22 226.55-2.26L226.55-2.26L226.55-2.26Q225.99-0.99 225.01-0.39L225.01-0.39L225.01-0.39Q224.04 0.22 222.15 0.22L222.15 0.22L222.15 0.22Q219.73 0.22 218.67-1.18L218.67-1.18L218.67-1.18Q217.62-2.57 217.62-5.05L217.62-5.05L217.62-15.44L221.15-15.44L221.15-5.33L221.15-5.33Q221.15-4.03 221.62-3.18L221.62-3.18L221.62-3.18Q222.08-2.33 223.20-2.33L223.20-2.33L223.20-2.33Q224.63-2.33 225.40-3.72L225.40-3.72L225.40-3.72Q226.18-5.12 226.18-8.34L226.18-8.34L226.18-15.44L229.68-15.44L229.68-15.44Q229.65-13.11 229.65-11.13L229.65-11.13L229.65-11.13Q229.65-10.26 229.63-9.39L229.63-9.39L229.63-9.39Q229.62-8.53 229.62-7.75L229.62-7.75L229.62-7.75Q229.62-6.97 229.62-6.34L229.62-6.34L229.62-6.34Q229.62-5.70 229.62-5.33L229.62-5.33L229.62-5.33Q229.62-4.03 230.11-3.18L230.11-3.18L230.11-3.18Q230.61-2.33 231.72-2.33L231.72-2.33L231.72-2.33Q232.81-2.33 233.41-3.16L233.41-3.16L233.41-3.16Q234.02-4.00 234.30-5.35L234.30-5.35L234.30-5.35Q234.58-6.70 234.64-8.42L234.64-8.42L234.64-8.42Q234.70-10.14 234.70-11.90L234.70-11.90L234.70-11.90Q234.70-12.62 234.65-13.25L234.65-13.25L234.65-13.25Q234.61-13.89 234.53-14.38L234.53-14.38L234.53-14.38Q234.45-14.88 234.42-15.16L234.42-15.16L234.36-15.44Z" fill="url(#editing-outline-gradient)"></path></g></g><style>text {

}</style></svg>