<svg width="473.8625px" height="70.4px" xmlns="http://www.w3.org/2000/svg" viewBox="13.068749999999994 39.8 473.8625 70.4" preserveAspectRatio="xMidYMid"><defs><linearGradient id="editing-outline-gradient" x1="-0.41354545764260087" x2="1.4135454576426008" y1="0.09326335692419985" y2="0.9067366430758002"><stop offset="0" stop-color="#0a0a0a"></stop><stop offset="1" stop-color="#ffffff"></stop></linearGradient><filter id="editing-outline" x="-100%" y="-100%" width="300%" height="300%"><feMorphology in="SourceGraphic" operator="dilate" radius="1" result="outline"></feMorphology><feComposite operator="out" in="outline" in2="SourceAlpha"></feComposite></filter></defs><g filter="url(#editing-outline)"><g transform="translate(82.7399959564209, 89.69499969482422)"><path d="M2.17 0L2.17-20.99L2.17-20.99Q2.39-20.99 3.16-21.00L3.16-21.00L3.16-21.00Q3.94-21.02 4.90-21.02L4.90-21.02L4.90-21.02Q5.86-21.02 6.82-21.03L6.82-21.03L6.82-21.03Q7.78-21.05 8.40-21.05L8.40-21.05L8.40-21.05Q12.18-21.05 13.98-19.36L13.98-19.36L13.98-19.36Q15.78-17.67 15.78-14.72L15.78-14.72L15.78-14.72Q15.78-13.30 15.28-12.11L15.28-12.11L15.28-12.11Q14.79-10.91 13.81-10.04L13.81-10.04L13.81-10.04Q12.83-9.18 11.39-8.70L11.39-8.70L11.39-8.70Q9.95-8.21 8.03-8.21L8.03-8.21L5.86-8.21L5.86 0L2.17 0ZM5.86-18.38L5.86-10.97L8.25-10.97L8.25-10.97Q10.20-10.97 11.04-12.00L11.04-12.00L11.04-12.00Q11.87-13.02 11.87-14.60L11.87-14.60L11.87-14.60Q11.87-15.31 11.69-16.00L11.69-16.00L11.69-16.00Q11.50-16.68 11.05-17.22L11.05-17.22L11.05-17.22Q10.60-17.76 9.84-18.09L9.84-18.09L9.84-18.09Q9.08-18.41 7.94-18.41L7.94-18.41L7.94-18.41Q7.25-18.41 6.74-18.41L6.74-18.41L6.74-18.41Q6.23-18.41 5.86-18.38L5.86-18.38ZM25.20-12.21L25.20-12.21Q24.65-12.21 24.09-11.94L24.09-11.94L24.09-11.94Q23.53-11.66 23.10-11.18L23.10-11.18L23.10-11.18Q22.66-10.70 22.38-10.01L22.38-10.01L22.38-10.01Q22.10-9.33 22.10-8.49L22.10-8.49L22.10 0L18.57 0L18.57-7.81L18.57-7.81Q18.57-9.67 18.32-10.93L18.32-10.93L18.32-10.93Q18.07-12.18 17.79-12.96L17.79-12.96L17.79-12.96Q17.45-13.86 17.05-14.41L17.05-14.41L19.84-15.53L19.84-15.53Q20.12-15.19 20.43-14.69L20.43-14.69L20.43-14.69Q20.68-14.26 20.93-13.67L20.93-13.67L20.93-13.67Q21.17-13.08 21.33-12.28L21.33-12.28L21.33-12.28Q21.95-14.07 23.13-14.86L23.13-14.86L23.13-14.86Q24.30-15.65 25.79-15.65L25.79-15.65L25.79-15.65Q26.51-15.65 27.13-15.48L27.13-15.48L27.13-15.48Q27.75-15.31 27.71-15.31L27.71-15.31L26.72-11.87L26.72-11.87Q26.75-11.87 26.37-12.04L26.37-12.04L26.37-12.04Q25.98-12.21 25.20-12.21L25.20-12.21ZM27.87-7.35L27.87-7.35Q27.87-9.42 28.44-11.01L28.44-11.01L28.44-11.01Q29.02-12.59 30.02-13.66L30.02-13.66L30.02-13.66Q31.03-14.72 32.40-15.27L32.40-15.27L32.40-15.27Q33.76-15.81 35.34-15.81L35.34-15.81L35.34-15.81Q36.73-15.81 37.71-15.47L37.71-15.47L37.71-15.47Q38.69-15.13 39.31-14.54L39.31-14.54L39.31-14.54Q39.93-13.95 40.22-13.14L40.22-13.14L40.22-13.14Q40.52-12.34 40.52-11.41L40.52-11.41L40.52-11.41Q40.52-10.29 39.90-9.28L39.90-9.28L39.90-9.28Q39.28-8.28 38.11-7.52L38.11-7.52L38.11-7.52Q36.95-6.76 35.31-6.31L35.31-6.31L35.31-6.31Q33.67-5.86 31.62-5.83L31.62-5.83L31.62-5.83Q31.71-5.12 31.91-4.48L31.91-4.48L31.91-4.48Q32.12-3.84 32.50-3.36L32.50-3.36L32.50-3.36Q32.89-2.88 33.51-2.60L33.51-2.60L33.51-2.60Q34.13-2.33 35.06-2.33L35.06-2.33L35.06-2.33Q35.74-2.33 36.52-2.48L36.52-2.48L36.52-2.48Q37.29-2.63 37.94-2.85L37.94-2.85L37.94-2.85Q38.72-3.10 39.46-3.41L39.46-3.41L40.39-1.21L40.39-1.21Q39.59-0.81 38.66-0.50L38.66-0.50L38.66-0.50Q37.85-0.22 36.80 0L36.80 0L36.80 0Q35.74 0.22 34.57 0.22L34.57 0.22L34.57 0.22Q32.77 0.22 31.50-0.33L31.50-0.33L31.50-0.33Q30.23-0.87 29.42-1.86L29.42-1.86L29.42-1.86Q28.61-2.85 28.24-4.25L28.24-4.25L28.24-4.25Q27.87-5.64 27.87-7.35L27.87-7.35ZM35.06-13.39L35.06-13.39Q34.04-13.39 33.37-12.91L33.37-12.91L33.37-12.91Q32.71-12.43 32.30-11.67L32.30-11.67L32.30-11.67Q31.90-10.91 31.73-9.97L31.73-9.97L31.73-9.97Q31.56-9.02 31.53-8.06L31.53-8.06L31.53-8.06Q33.02-8.12 34.05-8.45L34.05-8.45L34.05-8.45Q35.09-8.77 35.74-9.25L35.74-9.25L35.74-9.25Q36.39-9.73 36.69-10.29L36.69-10.29L36.69-10.29Q36.98-10.85 36.98-11.41L36.98-11.41L36.98-11.41Q36.98-12.31 36.46-12.85L36.46-12.85L36.46-12.85Q35.93-13.39 35.06-13.39L35.06-13.39ZM53.82-13.70L51.83-11.81L51.83-11.81Q51.37-12.34 50.89-12.71L50.89-12.71L50.89-12.71Q50.41-13.08 49.60-13.08L49.60-13.08L49.60-13.08Q49.14-13.08 48.56-12.94L48.56-12.94L48.56-12.94Q47.99-12.80 47.49-12.26L47.49-12.26L47.49-12.26Q47.00-11.72 46.67-10.66L46.67-10.66L46.67-10.66Q46.34-9.61 46.34-7.81L46.34-7.81L46.34-7.81Q46.34-5.98 46.67-4.91L46.67-4.91L46.67-4.91Q47.00-3.84 47.51-3.25L47.51-3.25L47.51-3.25Q48.02-2.67 48.61-2.50L48.61-2.50L48.61-2.50Q49.20-2.33 49.76-2.33L49.76-2.33L49.76-2.33Q50.19-2.33 50.65-2.40L50.65-2.40L50.65-2.40Q51.12-2.48 51.55-2.59L51.55-2.59L51.55-2.59Q51.99-2.70 52.31-2.79L52.31-2.79L52.31-2.79Q52.64-2.88 52.79-2.94L52.79-2.94L53.66-0.71L53.66-0.71Q53.57-0.68 53.24-0.53L53.24-0.53L53.24-0.53Q52.92-0.37 52.36-0.22L52.36-0.22L52.36-0.22Q51.80-0.06 51.03 0.08L51.03 0.08L51.03 0.08Q50.25 0.22 49.29 0.22L49.29 0.22L49.29 0.22Q47.49 0.22 46.22-0.33L46.22-0.33L46.22-0.33Q44.95-0.87 44.13-1.86L44.13-1.86L44.13-1.86Q43.31-2.85 42.92-4.25L42.92-4.25L42.92-4.25Q42.53-5.64 42.53-7.35L42.53-7.35L42.53-7.35Q42.53-9.39 43.07-10.97L43.07-10.97L43.07-10.97Q43.62-12.55 44.58-13.62L44.58-13.62L44.58-13.62Q45.54-14.69 46.84-15.25L46.84-15.25L46.84-15.25Q48.14-15.81 49.63-15.81L49.63-15.81L49.63-15.81Q51.09-15.81 52.10-15.25L52.10-15.25L52.10-15.25Q53.10-14.69 53.82-13.70L53.82-13.70ZM68.94-15.44L68.79-6.26L68.79-6.26Q68.79-5.33 68.93-4.56L68.93-4.56L68.93-4.56Q69.07-3.78 69.24-3.02L69.24-3.02L69.24-3.02Q69.41-2.26 69.56-1.49L69.56-1.49L69.56-1.49Q69.72-0.71 69.72 0.22L69.72 0.22L69.72 0.22Q69.72 3.50 68.05 5.12L68.05 5.12L68.05 5.12Q66.37 6.73 63.52 6.73L63.52 6.73L63.52 6.73Q62.59 6.73 61.66 6.56L61.66 6.56L61.66 6.56Q60.73 6.39 59.94 6.17L59.94 6.17L59.94 6.17Q59.15 5.95 58.59 5.74L58.59 5.74L58.59 5.74Q58.03 5.52 57.85 5.42L57.85 5.42L58.71 2.73L58.71 2.73Q59.15 2.91 59.69 3.12L59.69 3.12L59.69 3.12Q60.23 3.32 60.81 3.50L60.81 3.50L60.81 3.50Q61.38 3.69 62 3.81L62 3.81L62 3.81Q62.62 3.94 63.21 3.94L63.21 3.94L63.21 3.94Q64.95 3.94 65.72 2.90L65.72 2.90L65.72 2.90Q66.50 1.86 66.50 0.22L66.50 0.22L66.50 0.22Q66.50-1.27 65.88-2.85L65.88-2.85L65.88-2.85Q65.01-1.21 63.57-0.51L63.57-0.51L63.57-0.51Q62.12 0.19 60.54 0.19L60.54 0.19L60.54 0.19Q58.09 0.19 57.06-1.24L57.06-1.24L57.06-1.24Q56.02-2.67 56.02-5.15L56.02-5.15L56.02-15.44L59.55-15.44L59.55-5.24L59.55-5.24Q59.55-3.94 60.02-3.19L60.02-3.19L60.02-3.19Q60.48-2.45 61.60-2.45L61.60-2.45L61.60-2.45Q62.19-2.45 62.85-2.79L62.85-2.79L62.85-2.79Q63.52-3.13 64.06-3.74L64.06-3.74L64.06-3.74Q64.60-4.34 64.96-5.19L64.96-5.19L64.96-5.19Q65.32-6.04 65.32-7.04L65.32-7.04L65.32-15.44L68.94-15.44ZM83.02 0L71.77 0L71.77-2.11L78.62-12.96L78.62-12.96Q77.04-12.87 75.49-12.87L75.49-12.87L72.45-12.87L72.01-15.44L82.74-15.44L82.74-13.33L75.98-2.48L75.98-2.48Q77.38-2.57 78.77-2.57L78.77-2.57L83.02-2.57L83.02 0ZM97.96-15.44L97.81-6.26L97.81-6.26Q97.81-5.33 97.94-4.56L97.94-4.56L97.94-4.56Q98.08-3.78 98.25-3.02L98.25-3.02L98.25-3.02Q98.42-2.26 98.58-1.49L98.58-1.49L98.58-1.49Q98.73-0.71 98.73 0.22L98.73 0.22L98.73 0.22Q98.73 3.50 97.06 5.12L97.06 5.12L97.06 5.12Q95.39 6.73 92.53 6.73L92.53 6.73L92.53 6.73Q91.61 6.73 90.67 6.56L90.67 6.56L90.67 6.56Q89.75 6.39 88.95 6.17L88.95 6.17L88.95 6.17Q88.16 5.95 87.61 5.74L87.61 5.74L87.61 5.74Q87.05 5.52 86.86 5.42L86.86 5.42L87.73 2.73L87.73 2.73Q88.16 2.91 88.71 3.12L88.71 3.12L88.71 3.12Q89.25 3.32 89.82 3.50L89.82 3.50L89.82 3.50Q90.40 3.69 91.02 3.81L91.02 3.81L91.02 3.81Q91.64 3.94 92.22 3.94L92.22 3.94L92.22 3.94Q93.96 3.94 94.74 2.90L94.74 2.90L94.74 2.90Q95.51 1.86 95.51 0.22L95.51 0.22L95.51 0.22Q95.51-1.27 94.89-2.85L94.89-2.85L94.89-2.85Q94.02-1.21 92.58-0.51L92.58-0.51L92.58-0.51Q91.14 0.19 89.56 0.19L89.56 0.19L89.56 0.19Q87.11 0.19 86.07-1.24L86.07-1.24L86.07-1.24Q85.03-2.67 85.03-5.15L85.03-5.15L85.03-15.44L88.57-15.44L88.57-5.24L88.57-5.24Q88.57-3.94 89.03-3.19L89.03-3.19L89.03-3.19Q89.50-2.45 90.61-2.45L90.61-2.45L90.61-2.45Q91.20-2.45 91.87-2.79L91.87-2.79L91.87-2.79Q92.53-3.13 93.08-3.74L93.08-3.74L93.08-3.74Q93.62-4.34 93.98-5.19L93.98-5.19L93.98-5.19Q94.33-6.04 94.33-7.04L94.33-7.04L94.33-15.44L97.96-15.44ZM101.87-0.40L101.87-15.44L105.40-15.44L105.40-0.74L105.40-0.74Q105.40 1.12 104.90 2.36L104.90 2.36L104.90 2.36Q104.41 3.60 103.65 4.45L103.65 4.45L103.65 4.45Q102.89 5.30 101.94 5.87L101.94 5.87L101.94 5.87Q101.00 6.45 100.07 6.91L100.07 6.91L98.64 4.56L98.64 4.56Q99.79 3.97 100.44 3.30L100.44 3.30L100.44 3.30Q101.09 2.63 101.40 1.97L101.40 1.97L101.40 1.97Q101.71 1.30 101.79 0.68L101.79 0.68L101.79 0.68Q101.87 0.06 101.87-0.40L101.87-0.40ZM103.66-22.32L103.66-22.32Q104.66-22.32 105.20-21.73L105.20-21.73L105.20-21.73Q105.74-21.14 105.74-20.21L105.74-20.21L105.74-20.21Q105.74-19.28 105.20-18.66L105.20-18.66L105.20-18.66Q104.66-18.04 103.57-18.04L103.57-18.04L103.57-18.04Q102.58-18.04 102.05-18.65L102.05-18.65L102.05-18.65Q101.53-19.25 101.53-20.12L101.53-20.12L101.53-20.12Q101.53-21.08 102.07-21.70L102.07-21.70L102.07-21.70Q102.61-22.32 103.66-22.32L103.66-22.32ZM122.54 0L119.04 0L119.04-10.01L119.04-10.01Q119.04-11.31 118.57-12.11L118.57-12.11L118.57-12.11Q118.11-12.90 116.99-12.90L116.99-12.90L116.99-12.90Q116.28-12.90 115.61-12.54L115.61-12.54L115.61-12.54Q114.95-12.18 114.42-11.50L114.42-11.50L114.42-11.50Q113.89-10.82 113.57-9.84L113.57-9.84L113.57-9.84Q113.24-8.87 113.24-7.66L113.24-7.66L113.24 0L109.71 0L109.71-7.81L109.71-7.81Q109.71-9.67 109.46-10.93L109.46-10.93L109.46-10.93Q109.21-12.18 108.93-12.96L108.93-12.96L108.93-12.96Q108.59-13.86 108.19-14.41L108.19-14.41L110.98-15.53L110.98-15.53Q111.29-15.19 111.60-14.69L111.60-14.69L111.60-14.69Q111.85-14.26 112.10-13.62L112.10-13.62L112.10-13.62Q112.34-12.99 112.50-12.18L112.50-12.18L112.50-12.18Q113.30-14.04 114.82-14.86L114.82-14.86L114.82-14.86Q116.34-15.69 118.02-15.69L118.02-15.69L118.02-15.69Q120.40-15.69 121.47-14.24L121.47-14.24L121.47-14.24Q122.54-12.80 122.54-10.35L122.54-10.35L122.54 0ZM125.52-7.35L125.52-7.35Q125.52-9.42 126.09-11.01L126.09-11.01L126.09-11.01Q126.67-12.59 127.67-13.66L127.67-13.66L127.67-13.66Q128.68-14.72 130.04-15.27L130.04-15.27L130.04-15.27Q131.41-15.81 132.99-15.81L132.99-15.81L132.99-15.81Q134.38-15.81 135.36-15.47L135.36-15.47L135.36-15.47Q136.34-15.13 136.96-14.54L136.96-14.54L136.96-14.54Q137.58-13.95 137.87-13.14L137.87-13.14L137.87-13.14Q138.17-12.34 138.17-11.41L138.17-11.41L138.17-11.41Q138.17-10.29 137.55-9.28L137.55-9.28L137.55-9.28Q136.93-8.28 135.76-7.52L135.76-7.52L135.76-7.52Q134.60-6.76 132.96-6.31L132.96-6.31L132.96-6.31Q131.32-5.86 129.27-5.83L129.27-5.83L129.27-5.83Q129.36-5.12 129.56-4.48L129.56-4.48L129.56-4.48Q129.77-3.84 130.15-3.36L130.15-3.36L130.15-3.36Q130.54-2.88 131.16-2.60L131.16-2.60L131.16-2.60Q131.78-2.33 132.71-2.33L132.71-2.33L132.71-2.33Q133.39-2.33 134.17-2.48L134.17-2.48L134.17-2.48Q134.94-2.63 135.59-2.85L135.59-2.85L135.59-2.85Q136.37-3.10 137.11-3.41L137.11-3.41L138.04-1.21L138.04-1.21Q137.24-0.81 136.31-0.50L136.31-0.50L136.31-0.50Q135.50-0.22 134.45 0L134.45 0L134.45 0Q133.39 0.22 132.22 0.22L132.22 0.22L132.22 0.22Q130.42 0.22 129.15-0.33L129.15-0.33L129.15-0.33Q127.88-0.87 127.07-1.86L127.07-1.86L127.07-1.86Q126.26-2.85 125.89-4.25L125.89-4.25L125.89-4.25Q125.52-5.64 125.52-7.35L125.52-7.35ZM132.71-13.39L132.71-13.39Q131.69-13.39 131.02-12.91L131.02-12.91L131.02-12.91Q130.35-12.43 129.95-11.67L129.95-11.67L129.95-11.67Q129.55-10.91 129.38-9.97L129.38-9.97L129.38-9.97Q129.21-9.02 129.18-8.06L129.18-8.06L129.18-8.06Q130.66-8.12 131.70-8.45L131.70-8.45L131.70-8.45Q132.74-8.77 133.39-9.25L133.39-9.25L133.39-9.25Q134.04-9.73 134.34-10.29L134.34-10.29L134.34-10.29Q134.63-10.85 134.63-11.41L134.63-11.41L134.63-11.41Q134.63-12.31 134.11-12.85L134.11-12.85L134.11-12.85Q133.58-13.39 132.71-13.39L132.71-13.39ZM165.60-15.44L169.20-15.44L169.26-15.19L169.26-15.19Q169.29-14.91 169.35-14.48L169.35-14.48L169.35-14.48Q169.42-14.04 169.46-13.45L169.46-13.45L169.46-13.45Q169.51-12.87 169.51-12.28L169.51-12.28L169.51-12.28Q169.51-8.83 169.12-6.45L169.12-6.45L169.12-6.45Q168.73-4.06 167.85-2.59L167.85-2.59L167.85-2.59Q166.97-1.12 165.51-0.45L165.51-0.45L165.51-0.45Q164.05 0.22 161.91 0.22L161.91 0.22L161.91 0.22Q158.91 0.22 157.79-2.26L157.79-2.26L157.79-2.26Q157.23-0.99 156.26-0.39L156.26-0.39L156.26-0.39Q155.28 0.22 153.39 0.22L153.39 0.22L153.39 0.22Q150.97 0.22 149.92-1.18L149.92-1.18L149.92-1.18Q148.86-2.57 148.86-5.05L148.86-5.05L148.86-15.44L152.40-15.44L152.40-5.33L152.40-5.33Q152.40-4.03 152.86-3.18L152.86-3.18L152.86-3.18Q153.33-2.33 154.44-2.33L154.44-2.33L154.44-2.33Q155.87-2.33 156.64-3.72L156.64-3.72L156.64-3.72Q157.42-5.12 157.42-8.34L157.42-8.34L157.42-15.44L160.92-15.44L160.92-15.44Q160.89-13.11 160.89-11.13L160.89-11.13L160.89-11.13Q160.89-10.26 160.87-9.39L160.87-9.39L160.87-9.39Q160.86-8.53 160.86-7.75L160.86-7.75L160.86-7.75Q160.86-6.97 160.86-6.34L160.86-6.34L160.86-6.34Q160.86-5.70 160.86-5.33L160.86-5.33L160.86-5.33Q160.86-4.03 161.36-3.18L161.36-3.18L161.36-3.18Q161.85-2.33 162.97-2.33L162.97-2.33L162.97-2.33Q164.05-2.33 164.66-3.16L164.66-3.16L164.66-3.16Q165.26-4.00 165.54-5.35L165.54-5.35L165.54-5.35Q165.82-6.70 165.88-8.42L165.88-8.42L165.88-8.42Q165.94-10.14 165.94-11.90L165.94-11.90L165.94-11.90Q165.94-12.62 165.90-13.25L165.90-13.25L165.90-13.25Q165.85-13.89 165.77-14.38L165.77-14.38L165.77-14.38Q165.70-14.88 165.66-15.16L165.66-15.16L165.60-15.44ZM185.69-15.44L185.54-6.26L185.54-6.26Q185.54-5.33 185.67-4.56L185.67-4.56L185.67-4.56Q185.81-3.78 185.98-3.02L185.98-3.02L185.98-3.02Q186.16-2.26 186.31-1.49L186.31-1.49L186.31-1.49Q186.47-0.71 186.47 0.22L186.47 0.22L186.47 0.22Q186.47 3.50 184.79 5.12L184.79 5.12L184.79 5.12Q183.12 6.73 180.27 6.73L180.27 6.73L180.27 6.73Q179.34 6.73 178.41 6.56L178.41 6.56L178.41 6.56Q177.48 6.39 176.68 6.17L176.68 6.17L176.68 6.17Q175.89 5.95 175.34 5.74L175.34 5.74L175.34 5.74Q174.78 5.52 174.59 5.42L174.59 5.42L175.46 2.73L175.46 2.73Q175.89 2.91 176.44 3.12L176.44 3.12L176.44 3.12Q176.98 3.32 177.55 3.50L177.55 3.50L177.55 3.50Q178.13 3.69 178.75 3.81L178.75 3.81L178.75 3.81Q179.37 3.94 179.96 3.94L179.96 3.94L179.96 3.94Q181.69 3.94 182.47 2.90L182.47 2.90L182.47 2.90Q183.24 1.86 183.24 0.22L183.24 0.22L183.24 0.22Q183.24-1.27 182.62-2.85L182.62-2.85L182.62-2.85Q181.75-1.21 180.31-0.51L180.31-0.51L180.31-0.51Q178.87 0.19 177.29 0.19L177.29 0.19L177.29 0.19Q174.84 0.19 173.80-1.24L173.80-1.24L173.80-1.24Q172.76-2.67 172.76-5.15L172.76-5.15L172.76-15.44L176.30-15.44L176.30-5.24L176.30-5.24Q176.30-3.94 176.76-3.19L176.76-3.19L176.76-3.19Q177.23-2.45 178.34-2.45L178.34-2.45L178.34-2.45Q178.93-2.45 179.60-2.79L179.60-2.79L179.60-2.79Q180.27-3.13 180.81-3.74L180.81-3.74L180.81-3.74Q181.35-4.34 181.71-5.19L181.71-5.19L181.71-5.19Q182.06-6.04 182.06-7.04L182.06-7.04L182.06-15.44L185.69-15.44ZM194.15-15.81L194.15-15.81L194.15-15.81Q195.05-15.81 195.92-15.62L195.92-15.62L195.92-15.62Q196.79-15.44 197.47-15.19L197.47-15.19L197.47-15.19Q198.28-14.91 198.96-14.60L198.96-14.60L197.90-12.18L197.90-12.18Q197.28-12.46 196.66-12.68L196.66-12.68L196.66-12.68Q196.14-12.87 195.50-13.04L195.50-13.04L195.50-13.04Q194.87-13.21 194.25-13.21L194.25-13.21L194.25-13.21Q193.53-13.21 193.02-12.87L193.02-12.87L193.02-12.87Q192.51-12.52 192.51-11.84L192.51-11.84L192.51-11.84Q192.51-10.07 195.08-9.08L195.08-9.08L195.08-9.08Q196.04-8.71 196.82-8.29L196.82-8.29L196.82-8.29Q197.59-7.87 198.14-7.32L198.14-7.32L198.14-7.32Q198.68-6.76 198.96-6.03L198.96-6.03L198.96-6.03Q199.24-5.30 199.24-4.31L199.24-4.31L199.24-4.31Q199.24-3.44 198.88-2.60L198.88-2.60L198.88-2.60Q198.52-1.77 197.83-1.12L197.83-1.12L197.83-1.12Q197.13-0.46 196.12-0.08L196.12-0.08L196.12-0.08Q195.11 0.31 193.84 0.31L193.84 0.31L193.84 0.31Q192.82 0.31 191.83 0.08L191.83 0.08L191.83 0.08Q190.84-0.15 190.05-0.43L190.05-0.43L190.05-0.43Q189.26-0.71 188.79-0.96L188.79-0.96L188.33-1.18L189.47-3.78L189.88-3.56L189.88-3.56Q190.28-3.32 190.90-3.04L190.90-3.04L190.90-3.04Q191.52-2.76 192.23-2.53L192.23-2.53L192.23-2.53Q192.94-2.29 193.53-2.29L193.53-2.29L193.53-2.29Q194.62-2.29 195.15-2.73L195.15-2.73L195.15-2.73Q195.67-3.16 195.67-3.88L195.67-3.88L195.67-3.88Q195.67-4.68 195.10-5.35L195.10-5.35L195.10-5.35Q194.53-6.01 193.38-6.45L193.38-6.45L193.38-6.45Q190.99-7.35 189.95-8.49L189.95-8.49L189.95-8.49Q188.91-9.64 188.91-11.47L188.91-11.47L188.91-11.47Q188.91-12.34 189.32-13.13L189.32-13.13L189.32-13.13Q189.72-13.92 190.42-14.52L190.42-14.52L190.42-14.52Q191.12-15.13 192.08-15.47L192.08-15.47L192.08-15.47Q193.04-15.81 194.15-15.81ZM212.54 0L201.28 0L201.28-2.11L208.13-12.96L208.13-12.96Q206.55-12.87 205.00-12.87L205.00-12.87L201.97-12.87L201.53-15.44L212.26-15.44L212.26-13.33L205.50-2.48L205.50-2.48Q206.89-2.57 208.29-2.57L208.29-2.57L212.54-2.57L212.54 0ZM223.88-7.87L223.88-15.44L227.42-15.44L227.42-7.47L227.42-7.47Q227.42-5.61 227.65-4.36L227.65-4.36L227.65-4.36Q227.88-3.10 228.16-2.33L228.16-2.33L228.16-2.33Q228.50-1.40 228.90-0.87L228.90-0.87L226.15 0.25L226.15 0.25Q225.77-0.09 225.46-0.62L225.46-0.62L225.46-0.62Q225.22-1.05 224.95-1.69L224.95-1.69L224.95-1.69Q224.69-2.33 224.59-3.19L224.59-3.19L224.59-3.19Q223.76-1.36 222.24-0.59L222.24-0.59L222.24-0.59Q220.72 0.19 219.08 0.19L219.08 0.19L219.08 0.19Q216.63 0.19 215.59-1.24L215.59-1.24L215.59-1.24Q214.55-2.67 214.55-5.15L214.55-5.15L214.55-15.44L218.09-15.44L218.09-5.21L218.09-5.21Q218.09-3.91 218.55-3.16L218.55-3.16L218.55-3.16Q219.02-2.42 220.13-2.42L220.13-2.42L220.13-2.42Q220.81-2.42 221.48-2.81L221.48-2.81L221.48-2.81Q222.15-3.19 222.69-3.91L222.69-3.91L222.69-3.91Q223.23-4.62 223.56-5.63L223.56-5.63L223.56-5.63Q223.88-6.63 223.88-7.87L223.88-7.87ZM231.72-21.86L235.26-22.48L235.26-13.64L235.26-13.64Q235.51-13.95 235.89-14.31L235.89-14.31L235.89-14.31Q236.28-14.66 236.87-14.97L236.87-14.97L236.87-14.97Q237.46-15.28 238.24-15.50L238.24-15.50L238.24-15.50Q239.01-15.72 240.03-15.72L240.03-15.72L240.03-15.72Q240.99-15.72 241.83-15.44L241.83-15.44L241.83-15.44Q242.67-15.16 243.27-14.63L243.27-14.63L243.27-14.63Q243.88-14.11 244.23-13.35L244.23-13.35L244.23-13.35Q244.59-12.59 244.59-11.63L244.59-11.63L244.59-11.63Q244.59-10.23 244.02-9.33L244.02-9.33L244.02-9.33Q243.44-8.43 242.73-7.91L242.73-7.91L242.73-7.91Q241.92-7.29 240.87-6.91L240.87-6.91L245.21 0L241.21 0L236.75-7.72L236.72-8.03L236.72-8.03Q236.96-8.09 237.66-8.31L237.66-8.31L237.66-8.31Q238.36-8.53 239.10-8.93L239.10-8.93L239.10-8.93Q239.85-9.33 240.42-9.94L240.42-9.94L240.42-9.94Q240.99-10.54 240.99-11.38L240.99-11.38L240.99-11.38Q240.99-12.28 240.47-12.74L240.47-12.74L240.47-12.74Q239.94-13.21 239.07-13.21L239.07-13.21L239.07-13.21Q237.89-13.21 237.15-12.74L237.15-12.74L237.15-12.74Q236.41-12.28 235.99-11.69L235.99-11.69L235.99-11.69Q235.57-11.10 235.41-10.57L235.41-10.57L235.41-10.57Q235.26-10.04 235.26-9.95L235.26-9.95L235.26 0L231.72 0L231.72-21.86ZM251.10 0.12L251.10 0.12Q249.46 0.12 248.59-0.85L248.59-0.85L248.59-0.85Q247.72-1.83 247.72-3.38L247.72-3.38L247.72-15.44L251.26-15.44L251.26-3.69L251.26-3.69Q251.26-2.98 251.47-2.73L251.47-2.73L251.47-2.73Q251.69-2.48 252.12-2.48L252.12-2.48L252.12-2.48Q252.25-2.48 252.39-2.48L252.39-2.48L252.39-2.48Q252.53-2.48 252.65-2.51L252.65-2.51L252.65-2.51Q252.77-2.51 252.93-2.54L252.93-2.54L253.30-0.31L253.30-0.31Q253.08-0.19 252.74-0.09L252.74-0.09L252.74-0.09Q252.46 0 252.05 0.06L252.05 0.06L252.05 0.06Q251.63 0.12 251.10 0.12L251.10 0.12ZM249.55-22.32L249.55-22.32Q250.54-22.32 251.07-21.73L251.07-21.73L251.07-21.73Q251.60-21.14 251.60-20.21L251.60-20.21L251.60-20.21Q251.60-19.28 251.05-18.66L251.05-18.66L251.05-18.66Q250.51-18.04 249.46-18.04L249.46-18.04L249.46-18.04Q248.47-18.04 247.92-18.65L247.92-18.65L247.92-18.65Q247.38-19.25 247.38-20.12L247.38-20.12L247.38-20.12Q247.38-21.08 247.92-21.70L247.92-21.70L247.92-21.70Q248.47-22.32 249.55-22.32L249.55-22.32ZM272.37-15.44L275.96-15.44L276.02-15.19L276.02-15.19Q276.06-14.91 276.12-14.48L276.12-14.48L276.12-14.48Q276.18-14.04 276.23-13.45L276.23-13.45L276.23-13.45Q276.27-12.87 276.27-12.28L276.27-12.28L276.27-12.28Q276.27-8.83 275.88-6.45L275.88-6.45L275.88-6.45Q275.50-4.06 274.61-2.59L274.61-2.59L274.61-2.59Q273.73-1.12 272.27-0.45L272.27-0.45L272.27-0.45Q270.82 0.22 268.68 0.22L268.68 0.22L268.68 0.22Q265.67 0.22 264.55-2.26L264.55-2.26L264.55-2.26Q264.00-0.99 263.02-0.39L263.02-0.39L263.02-0.39Q262.04 0.22 260.15 0.22L260.15 0.22L260.15 0.22Q257.73 0.22 256.68-1.18L256.68-1.18L256.68-1.18Q255.63-2.57 255.63-5.05L255.63-5.05L255.63-15.44L259.16-15.44L259.16-5.33L259.16-5.33Q259.16-4.03 259.63-3.18L259.63-3.18L259.63-3.18Q260.09-2.33 261.21-2.33L261.21-2.33L261.21-2.33Q262.63-2.33 263.41-3.72L263.41-3.72L263.41-3.72Q264.18-5.12 264.18-8.34L264.18-8.34L264.18-15.44L267.69-15.44L267.69-15.44Q267.65-13.11 267.65-11.13L267.65-11.13L267.65-11.13Q267.65-10.26 267.64-9.39L267.64-9.39L267.64-9.39Q267.62-8.53 267.62-7.75L267.62-7.75L267.62-7.75Q267.62-6.97 267.62-6.34L267.62-6.34L267.62-6.34Q267.62-5.70 267.62-5.33L267.62-5.33L267.62-5.33Q267.62-4.03 268.12-3.18L268.12-3.18L268.12-3.18Q268.62-2.33 269.73-2.33L269.73-2.33L269.73-2.33Q270.82-2.33 271.42-3.16L271.42-3.16L271.42-3.16Q272.03-4.00 272.30-5.35L272.30-5.35L272.30-5.35Q272.58-6.70 272.65-8.42L272.65-8.42L272.65-8.42Q272.71-10.14 272.71-11.90L272.71-11.90L272.71-11.90Q272.71-12.62 272.66-13.25L272.66-13.25L272.66-13.25Q272.61-13.89 272.54-14.38L272.54-14.38L272.54-14.38Q272.46-14.88 272.43-15.16L272.43-15.16L272.37-15.44ZM292.14-14.79L292.14-7.47L292.14-7.47Q292.14-5.61 292.38-4.36L292.38-4.36L292.38-4.36Q292.61-3.10 292.89-2.33L292.89-2.33L292.89-2.33Q293.23-1.40 293.63-0.87L293.63-0.87L290.87 0.25L290.87 0.25Q290.47-0.15 290.13-0.71L290.13-0.71L290.13-0.71Q289.85-1.21 289.60-1.91L289.60-1.91L289.60-1.91Q289.35-2.60 289.29-3.56L289.29-3.56L289.29-3.56Q288.77-1.71 287.60-0.76L287.60-0.76L287.60-0.76Q286.44 0.19 284.46 0.19L284.46 0.19L284.46 0.19Q283.00 0.19 281.93-0.36L281.93-0.36L281.93-0.36Q280.86-0.90 280.15-1.91L280.15-1.91L280.15-1.91Q279.43-2.91 279.09-4.34L279.09-4.34L279.09-4.34Q278.75-5.77 278.75-7.50L278.75-7.50L278.75-7.50Q278.75-9.27 279.29-10.77L279.29-10.77L279.29-10.77Q279.84-12.28 280.81-13.36L280.81-13.36L280.81-13.36Q281.79-14.45 283.15-15.07L283.15-15.07L283.15-15.07Q284.52-15.69 286.16-15.69L286.16-15.69L286.16-15.69Q287.09-15.69 288.10-15.55L288.10-15.55L288.10-15.55Q289.11-15.41 289.97-15.25L289.97-15.25L289.97-15.25Q290.84-15.10 291.45-14.96L291.45-14.96L291.45-14.96Q292.05-14.82 292.14-14.79L292.14-14.79ZM285.05-2.29L285.05-2.29Q285.82-2.29 286.47-2.82L286.47-2.82L286.47-2.82Q287.12-3.35 287.60-4.20L287.60-4.20L287.60-4.20Q288.08-5.05 288.35-6.15L288.35-6.15L288.35-6.15Q288.61-7.25 288.61-8.40L288.61-8.40L288.61-12.87L288.61-12.87Q288.30-12.96 287.68-13.08L287.68-13.08L287.68-13.08Q287.06-13.21 286.56-13.21L286.56-13.21L286.56-13.21Q285.39-13.21 284.63-12.80L284.63-12.80L284.63-12.80Q283.87-12.40 283.40-11.69L283.40-11.69L283.40-11.69Q282.94-10.97 282.75-9.98L282.75-9.98L282.75-9.98Q282.57-8.99 282.57-7.81L282.57-7.81L282.57-7.81Q282.57-6.73 282.63-5.74L282.63-5.74L282.63-5.74Q282.69-4.74 282.95-3.97L282.95-3.97L282.95-3.97Q283.22-3.19 283.71-2.74L283.71-2.74L283.71-2.74Q284.21-2.29 285.05-2.29L285.05-2.29ZM308.79 0L305.29 0L305.29-10.01L305.29-10.01Q305.29-11.31 304.82-12.11L304.82-12.11L304.82-12.11Q304.36-12.90 303.24-12.90L303.24-12.90L303.24-12.90Q302.53-12.90 301.86-12.54L301.86-12.54L301.86-12.54Q301.20-12.18 300.67-11.50L300.67-11.50L300.67-11.50Q300.14-10.82 299.82-9.84L299.82-9.84L299.82-9.84Q299.49-8.87 299.49-7.66L299.49-7.66L299.49 0L295.96 0L295.96-7.81L295.96-7.81Q295.96-9.67 295.71-10.93L295.71-10.93L295.71-10.93Q295.46-12.18 295.18-12.96L295.18-12.96L295.18-12.96Q294.84-13.86 294.44-14.41L294.44-14.41L297.23-15.53L297.23-15.53Q297.54-15.19 297.85-14.69L297.85-14.69L297.85-14.69Q298.10-14.26 298.34-13.62L298.34-13.62L298.34-13.62Q298.59-12.99 298.75-12.18L298.75-12.18L298.75-12.18Q299.55-14.04 301.07-14.86L301.07-14.86L301.07-14.86Q302.59-15.69 304.26-15.69L304.26-15.69L304.26-15.69Q306.65-15.69 307.72-14.24L307.72-14.24L307.72-14.24Q308.79-12.80 308.79-10.35L308.79-10.35L308.79 0ZM315.95 0.12L315.95 0.12Q314.31 0.12 313.44-0.85L313.44-0.85L313.44-0.85Q312.57-1.83 312.57-3.38L312.57-3.38L312.57-15.44L316.11-15.44L316.11-3.69L316.11-3.69Q316.11-2.98 316.32-2.73L316.32-2.73L316.32-2.73Q316.54-2.48 316.98-2.48L316.98-2.48L316.98-2.48Q317.10-2.48 317.24-2.48L317.24-2.48L317.24-2.48Q317.38-2.48 317.50-2.51L317.50-2.51L317.50-2.51Q317.63-2.51 317.78-2.54L317.78-2.54L318.15-0.31L318.15-0.31Q317.94-0.19 317.60-0.09L317.60-0.09L317.60-0.09Q317.32 0 316.90 0.06L316.90 0.06L316.90 0.06Q316.48 0.12 315.95 0.12L315.95 0.12ZM314.40-22.32L314.40-22.32Q315.39-22.32 315.92-21.73L315.92-21.73L315.92-21.73Q316.45-21.14 316.45-20.21L316.45-20.21L316.45-20.21Q316.45-19.28 315.91-18.66L315.91-18.66L315.91-18.66Q315.36-18.04 314.31-18.04L314.31-18.04L314.31-18.04Q313.32-18.04 312.77-18.65L312.77-18.65L312.77-18.65Q312.23-19.25 312.23-20.12L312.23-20.12L312.23-20.12Q312.23-21.08 312.77-21.70L312.77-21.70L312.77-21.70Q313.32-22.32 314.40-22.32L314.40-22.32ZM319.70-7.35L319.70-7.35Q319.70-9.42 320.28-11.01L320.28-11.01L320.28-11.01Q320.85-12.59 321.86-13.66L321.86-13.66L321.86-13.66Q322.87-14.72 324.23-15.27L324.23-15.27L324.23-15.27Q325.59-15.81 327.17-15.81L327.17-15.81L327.17-15.81Q328.57-15.81 329.55-15.47L329.55-15.47L329.55-15.47Q330.52-15.13 331.14-14.54L331.14-14.54L331.14-14.54Q331.76-13.95 332.06-13.14L332.06-13.14L332.06-13.14Q332.35-12.34 332.35-11.41L332.35-11.41L332.35-11.41Q332.35-10.29 331.73-9.28L331.73-9.28L331.73-9.28Q331.11-8.28 329.95-7.52L329.95-7.52L329.95-7.52Q328.79-6.76 327.14-6.31L327.14-6.31L327.14-6.31Q325.50-5.86 323.45-5.83L323.45-5.83L323.45-5.83Q323.55-5.12 323.75-4.48L323.75-4.48L323.75-4.48Q323.95-3.84 324.34-3.36L324.34-3.36L324.34-3.36Q324.73-2.88 325.34-2.60L325.34-2.60L325.34-2.60Q325.96-2.33 326.89-2.33L326.89-2.33L326.89-2.33Q327.58-2.33 328.35-2.48L328.35-2.48L328.35-2.48Q329.13-2.63 329.78-2.85L329.78-2.85L329.78-2.85Q330.55-3.10 331.30-3.41L331.30-3.41L332.23-1.21L332.23-1.21Q331.42-0.81 330.49-0.50L330.49-0.50L330.49-0.50Q329.69-0.22 328.63 0L328.63 0L328.63 0Q327.58 0.22 326.40 0.22L326.40 0.22L326.40 0.22Q324.60 0.22 323.33-0.33L323.33-0.33L323.33-0.33Q322.06-0.87 321.25-1.86L321.25-1.86L321.25-1.86Q320.45-2.85 320.07-4.25L320.07-4.25L320.07-4.25Q319.70-5.64 319.70-7.35L319.70-7.35ZM326.89-13.39L326.89-13.39Q325.87-13.39 325.21-12.91L325.21-12.91L325.21-12.91Q324.54-12.43 324.14-11.67L324.14-11.67L324.14-11.67Q323.73-10.91 323.56-9.97L323.56-9.97L323.56-9.97Q323.39-9.02 323.36-8.06L323.36-8.06L323.36-8.06Q324.85-8.12 325.89-8.45L325.89-8.45L325.89-8.45Q326.93-8.77 327.58-9.25L327.58-9.25L327.58-9.25Q328.23-9.73 328.52-10.29L328.52-10.29L328.52-10.29Q328.82-10.85 328.82-11.41L328.82-11.41L328.82-11.41Q328.82-12.31 328.29-12.85L328.29-12.85L328.29-12.85Q327.76-13.39 326.89-13.39L326.89-13.39Z" fill="url(#editing-outline-gradient)"></path></g></g><style>text {

}</style></svg>