<svg width="347.54653320312497px" height="125.6px" xmlns="http://www.w3.org/2000/svg" viewBox="76.22673339843752 12.200000000000003 347.54653320312497 125.6" style="background: rgb(40, 41, 47);" preserveAspectRatio="xMidYMid"><defs><linearGradient id="editing-outline-gradient" x1="-0.41354545764260087" x2="1.4135454576426008" y1="0.09326335692419985" y2="0.9067366430758002"><stop offset="0" stop-color="#0a0a0a"></stop><stop offset="1" stop-color="#ffffff"></stop></linearGradient><filter id="editing-outline" x="-100%" y="-100%" width="300%" height="300%"><feMorphology in="SourceGraphic" operator="dilate" radius="1" result="outline"></feMorphology><feComposite operator="out" in="outline" in2="SourceAlpha"></feComposite></filter></defs><g filter="url(#editing-outline)"><g transform="translate(130.29302150011063, 98.52000045776367)"><path d="M0.64-43.33L30.85-43.33L29.89-37.57L19.14-37.57L19.14 0L11.58 0L11.58-37.57L0.64-37.57L0.64-43.33ZM49.54-16.26L49.54-31.87L56.83-31.87L56.83-15.42L56.83-15.42Q56.83-11.58 57.31-8.99L57.31-8.99L57.31-8.99Q57.79-6.40 58.37-4.80L58.37-4.80L58.37-4.80Q59.07-2.88 59.90-1.79L59.90-1.79L54.21 0.51L54.21 0.51Q53.44-0.19 52.80-1.28L52.80-1.28L52.80-1.28Q52.29-2.18 51.74-3.49L51.74-3.49L51.74-3.49Q51.20-4.80 51.01-6.59L51.01-6.59L51.01-6.59Q49.28-2.82 46.14-1.22L46.14-1.22L46.14-1.22Q43.01 0.38 39.62 0.38L39.62 0.38L39.62 0.38Q34.56 0.38 32.42-2.56L32.42-2.56L32.42-2.56Q30.27-5.50 30.27-10.62L30.27-10.62L30.27-31.87L37.57-31.87L37.57-10.75L37.57-10.75Q37.57-8.06 38.53-6.53L38.53-6.53L38.53-6.53Q39.49-4.99 41.79-4.99L41.79-4.99L41.79-4.99Q43.20-4.99 44.58-5.79L44.58-5.79L44.58-5.79Q45.95-6.59 47.07-8.06L47.07-8.06L47.07-8.06Q48.19-9.54 48.86-11.62L48.86-11.62L48.86-11.62Q49.54-13.70 49.54-16.26L49.54-16.26ZM80-25.22L80-25.22Q78.85-25.22 77.70-24.64L77.70-24.64L77.70-24.64Q76.54-24.06 75.65-23.07L75.65-23.07L75.65-23.07Q74.75-22.08 74.18-20.67L74.18-20.67L74.18-20.67Q73.60-19.26 73.60-17.54L73.60-17.54L73.60 0L66.30 0L66.30-16.13L66.30-16.13Q66.30-19.97 65.79-22.56L65.79-22.56L65.79-22.56Q65.28-25.15 64.70-26.75L64.70-26.75L64.70-26.75Q64-28.61 63.17-29.76L63.17-29.76L68.93-32.06L68.93-32.06Q69.50-31.36 70.14-30.34L70.14-30.34L70.14-30.34Q70.66-29.44 71.17-28.22L71.17-28.22L71.17-28.22Q71.68-27.01 72-25.34L72-25.34L72-25.34Q73.28-29.06 75.71-30.69L75.71-30.69L75.71-30.69Q78.14-32.32 81.22-32.32L81.22-32.32L81.22-32.32Q82.69-32.32 83.97-31.97L83.97-31.97L83.97-31.97Q85.25-31.62 85.18-31.62L85.18-31.62L83.14-24.51L83.14-24.51Q83.20-24.51 82.40-24.86L82.40-24.86L82.40-24.86Q81.60-25.22 80-25.22L80-25.22ZM89.34-1.47L89.34-45.12L96.64-46.40L96.64-26.88L96.64-26.88Q97.79-29.50 99.87-30.94L99.87-30.94L99.87-30.94Q101.95-32.38 105.22-32.38L105.22-32.38L105.22-32.38Q108.22-32.38 110.43-31.26L110.43-31.26L110.43-31.26Q112.64-30.14 114.11-28.06L114.11-28.06L114.11-28.06Q115.58-25.98 116.29-23.04L116.29-23.04L116.29-23.04Q116.99-20.10 116.99-16.51L116.99-16.51L116.99-16.51Q116.99-12.86 115.87-9.76L115.87-9.76L115.87-9.76Q114.75-6.66 112.74-4.42L112.74-4.42L112.74-4.42Q110.72-2.18 107.90-0.90L107.90-0.90L107.90-0.90Q105.09 0.38 101.70 0.38L101.70 0.38L101.70 0.38Q99.78 0.38 97.60 0.10L97.60 0.10L97.60 0.10Q95.42-0.19 93.57-0.51L93.57-0.51L93.57-0.51Q91.46-0.90 89.34-1.47L89.34-1.47ZM104-27.26L104-27.26Q102.40-27.26 101.06-26.18L101.06-26.18L101.06-26.18Q99.71-25.09 98.72-23.30L98.72-23.30L98.72-23.30Q97.73-21.50 97.18-19.26L97.18-19.26L97.18-19.26Q96.64-17.02 96.64-14.66L96.64-14.66L96.64-5.38L96.64-5.38Q97.22-5.25 98.50-4.99L98.50-4.99L98.50-4.99Q99.78-4.74 100.86-4.74L100.86-4.74L100.86-4.74Q103.23-4.74 104.83-5.57L104.83-5.57L104.83-5.57Q106.43-6.40 107.39-7.87L107.39-7.87L107.39-7.87Q108.35-9.34 108.74-11.39L108.74-11.39L108.74-11.39Q109.12-13.44 109.12-15.87L109.12-15.87L109.12-15.87Q109.12-18.11 108.99-20.16L108.99-20.16L108.99-20.16Q108.86-22.21 108.32-23.81L108.32-23.81L108.32-23.81Q107.78-25.41 106.75-26.34L106.75-26.34L106.75-26.34Q105.73-27.26 104-27.26L104-27.26ZM136.06-32.64L136.06-32.64Q143.42-32.64 146.75-28.29L146.75-28.29L146.75-28.29Q150.08-23.94 150.08-16.32L150.08-16.32L150.08-16.32Q150.08-12.74 149.18-9.63L149.18-9.63L149.18-9.63Q148.29-6.53 146.46-4.26L146.46-4.26L146.46-4.26Q144.64-1.98 141.89-0.67L141.89-0.67L141.89-0.67Q139.14 0.64 135.49 0.64L135.49 0.64L135.49 0.64Q131.84 0.64 129.18-0.48L129.18-0.48L129.18-0.48Q126.53-1.60 124.80-3.71L124.80-3.71L124.80-3.71Q123.07-5.82 122.27-8.83L122.27-8.83L122.27-8.83Q121.47-11.84 121.47-15.62L121.47-15.62L121.47-15.62Q121.47-19.26 122.37-22.37L122.37-22.37L122.37-22.37Q123.26-25.47 125.09-27.74L125.09-27.74L125.09-27.74Q126.91-30.02 129.66-31.33L129.66-31.33L129.66-31.33Q132.42-32.64 136.06-32.64L136.06-32.64ZM135.42-27.26L135.42-27.26Q133.57-27.26 132.38-26.43L132.38-26.43L132.38-26.43Q131.20-25.60 130.53-24.10L130.53-24.10L130.53-24.10Q129.86-22.59 129.60-20.58L129.60-20.58L129.60-20.58Q129.34-18.56 129.34-16.26L129.34-16.26L129.34-16.26Q129.34-13.89 129.63-11.78L129.63-11.78L129.63-11.78Q129.92-9.66 130.69-8.10L130.69-8.10L130.69-8.10Q131.46-6.53 132.77-5.63L132.77-5.63L132.77-5.63Q134.08-4.74 136.13-4.74L136.13-4.74L136.13-4.74Q137.98-4.74 139.17-5.57L139.17-5.57L139.17-5.57Q140.35-6.40 141.02-7.90L141.02-7.90L141.02-7.90Q141.70-9.41 141.95-11.39L141.95-11.39L141.95-11.39Q142.21-13.38 142.21-15.68L142.21-15.68L142.21-15.68Q142.21-18.05 141.92-20.16L141.92-20.16L141.92-20.16Q141.63-22.27 140.86-23.87L140.86-23.87L140.86-23.87Q140.10-25.47 138.78-26.37L138.78-26.37L138.78-26.37Q137.47-27.26 135.42-27.26L135.42-27.26ZM156.29 0L156.29-43.33L163.90-43.33L163.90-5.76L180.10-5.76L180.10 0L156.29 0ZM181.06-15.17L181.06-15.17Q181.06-19.46 182.24-22.72L182.24-22.72L182.24-22.72Q183.42-25.98 185.50-28.19L185.50-28.19L185.50-28.19Q187.58-30.40 190.40-31.52L190.40-31.52L190.40-31.52Q193.22-32.64 196.48-32.64L196.48-32.64L196.48-32.64Q199.36-32.64 201.38-31.94L201.38-31.94L201.38-31.94Q203.39-31.23 204.67-30.02L204.67-30.02L204.67-30.02Q205.95-28.80 206.56-27.14L206.56-27.14L206.56-27.14Q207.17-25.47 207.17-23.55L207.17-23.55L207.17-23.55Q207.17-21.25 205.89-19.17L205.89-19.17L205.89-19.17Q204.61-17.09 202.21-15.52L202.21-15.52L202.21-15.52Q199.81-13.95 196.42-13.02L196.42-13.02L196.42-13.02Q193.02-12.10 188.80-12.03L188.80-12.03L188.80-12.03Q188.99-10.56 189.41-9.25L189.41-9.25L189.41-9.25Q189.82-7.94 190.62-6.94L190.62-6.94L190.62-6.94Q191.42-5.95 192.70-5.38L192.70-5.38L192.70-5.38Q193.98-4.80 195.90-4.80L195.90-4.80L195.90-4.80Q197.31-4.80 198.91-5.12L198.91-5.12L198.91-5.12Q200.51-5.44 201.86-5.89L201.86-5.89L201.86-5.89Q203.46-6.40 204.99-7.04L204.99-7.04L206.91-2.50L206.91-2.50Q205.25-1.66 203.33-1.02L203.33-1.02L203.33-1.02Q201.66-0.45 199.49 0L199.49 0L199.49 0Q197.31 0.45 194.88 0.45L194.88 0.45L194.88 0.45Q191.17 0.45 188.54-0.67L188.54-0.67L188.54-0.67Q185.92-1.79 184.26-3.84L184.26-3.84L184.26-3.84Q182.59-5.89 181.82-8.77L181.82-8.77L181.82-8.77Q181.06-11.65 181.06-15.17L181.06-15.17ZM195.90-27.65L195.90-27.65Q193.79-27.65 192.42-26.66L192.42-26.66L192.42-26.66Q191.04-25.66 190.21-24.10L190.21-24.10L190.21-24.10Q189.38-22.53 189.02-20.58L189.02-20.58L189.02-20.58Q188.67-18.62 188.61-16.64L188.61-16.64L188.61-16.64Q191.68-16.77 193.82-17.44L193.82-17.44L193.82-17.44Q195.97-18.11 197.31-19.10L197.31-19.10L197.31-19.10Q198.66-20.10 199.26-21.25L199.26-21.25L199.26-21.25Q199.87-22.40 199.87-23.55L199.87-23.55L199.87-23.55Q199.87-25.41 198.78-26.53L198.78-26.53L198.78-26.53Q197.70-27.65 195.90-27.65L195.90-27.65ZM216.96 0L208.77 0L219.46-16.90L210.11-31.87L218.56-31.87L222.59-25.28L222.59-25.28Q222.98-24.64 223.62-23.30L223.62-23.30L223.62-23.30Q224.26-21.95 224.90-20.61L224.90-20.61L224.90-20.61Q225.66-21.76 226.40-22.91L226.40-22.91L226.40-22.91Q227.14-24.06 227.71-25.15L227.71-25.15L227.71-25.15Q229.25-27.97 229.92-29.95L229.92-29.95L229.92-29.95Q230.59-31.94 230.59-31.87L230.59-31.87L238.14-31.87L238.14-31.87Q238.14-31.94 237.38-29.76L237.38-29.76L237.38-29.76Q236.61-27.58 234.69-24L234.69-24L234.69-24Q233.60-22.08 232.19-20.19L232.19-20.19L232.19-20.19Q230.78-18.30 229.44-16.83L229.44-16.83L239.81 0L231.49 0L226.75-8.26L224.26-12.93L221.76-8.19L216.96 0Z" fill="url(#editing-outline-gradient)"></path></g></g><style>text {
  <!-- font-size: 64px;
  font-family: Arial Black;
  dominant-baseline: central;
  text-anchor: middle; -->
}</style></svg>