<svg width="474.8375px" height="70.4px" xmlns="http://www.w3.org/2000/svg" viewBox="12.581250000000011 39.8 474.8375 70.4"  preserveAspectRatio="xMidYMid"><defs><linearGradient id="editing-outline-gradient" x1="-0.41354545764260087" x2="1.4135454576426008" y1="0.09326335692419985" y2="0.9067366430758002"><stop offset="0" stop-color="#0a0a0a"></stop><stop offset="1" stop-color="#ffffff"></stop></linearGradient><filter id="editing-outline" x="-100%" y="-100%" width="300%" height="300%"><feMorphology in="SourceGraphic" operator="dilate" radius="1" result="outline"></feMorphology><feComposite operator="out" in="outline" in2="SourceAlpha"></feComposite></filter></defs><g filter="url(#editing-outline)"><g transform="translate(82.84997344017029, 90.52999973297119)"><path d="M15.28 0L1.24 0L1.24-2.20L10.35-18.20L10.35-18.20Q9.73-18.14 9.08-18.12L9.08-18.12L9.08-18.12Q8.43-18.10 7.69-18.10L7.69-18.10L1.77-18.10L1.27-20.99L14.91-20.99L14.91-18.79L5.98-2.82L5.98-2.82Q6.51-2.85 7.07-2.87L7.07-2.87L7.07-2.87Q7.63-2.88 8.28-2.88L8.28-2.88L15.28-2.88L15.28 0ZM30.23-14.79L30.23-7.47L30.23-7.47Q30.23-5.61 30.46-4.36L30.46-4.36L30.46-4.36Q30.69-3.10 30.97-2.33L30.97-2.33L30.97-2.33Q31.31-1.40 31.71-0.87L31.71-0.87L28.95 0.25L28.95 0.25Q28.55-0.15 28.21-0.71L28.21-0.71L28.21-0.71Q27.93-1.21 27.68-1.91L27.68-1.91L27.68-1.91Q27.43-2.60 27.37-3.56L27.37-3.56L27.37-3.56Q26.85-1.71 25.68-0.76L25.68-0.76L25.68-0.76Q24.52 0.19 22.54 0.19L22.54 0.19L22.54 0.19Q21.08 0.19 20.01-0.36L20.01-0.36L20.01-0.36Q18.94-0.90 18.23-1.91L18.23-1.91L18.23-1.91Q17.52-2.91 17.17-4.34L17.17-4.34L17.17-4.34Q16.83-5.77 16.83-7.50L16.83-7.50L16.83-7.50Q16.83-9.27 17.38-10.77L17.38-10.77L17.38-10.77Q17.92-12.28 18.89-13.36L18.89-13.36L18.89-13.36Q19.87-14.45 21.23-15.07L21.23-15.07L21.23-15.07Q22.60-15.69 24.24-15.69L24.24-15.69L24.24-15.69Q25.17-15.69 26.18-15.55L26.18-15.55L26.18-15.55Q27.19-15.41 28.05-15.25L28.05-15.25L28.05-15.25Q28.92-15.10 29.53-14.96L29.53-14.96L29.53-14.96Q30.13-14.82 30.23-14.79L30.23-14.79ZM23.13-2.29L23.13-2.29Q23.90-2.29 24.55-2.82L24.55-2.82L24.55-2.82Q25.20-3.35 25.68-4.20L25.68-4.20L25.68-4.20Q26.16-5.05 26.43-6.15L26.43-6.15L26.43-6.15Q26.69-7.25 26.69-8.40L26.69-8.40L26.69-12.87L26.69-12.87Q26.38-12.96 25.76-13.08L25.76-13.08L25.76-13.08Q25.14-13.21 24.64-13.21L24.64-13.21L24.64-13.21Q23.47-13.21 22.71-12.80L22.71-12.80L22.71-12.80Q21.95-12.40 21.48-11.69L21.48-11.69L21.48-11.69Q21.02-10.97 20.83-9.98L20.83-9.98L20.83-9.98Q20.65-8.99 20.65-7.81L20.65-7.81L20.65-7.81Q20.65-6.73 20.71-5.74L20.71-5.74L20.71-5.74Q20.77-4.74 21.03-3.97L21.03-3.97L21.03-3.97Q21.30-3.19 21.79-2.74L21.79-2.74L21.79-2.74Q22.29-2.29 23.13-2.29L23.13-2.29ZM37.57 6.23L34.04 6.85L34.04-7.81L34.04-7.81Q34.04-9.67 33.79-10.93L33.79-10.93L33.79-10.93Q33.54-12.18 33.26-12.96L33.26-12.96L33.26-12.96Q32.92-13.86 32.52-14.41L32.52-14.41L35.31-15.53L35.31-15.53Q35.68-15.16 35.99-14.60L35.99-14.60L35.99-14.60Q36.24-14.14 36.49-13.47L36.49-13.47L36.49-13.47Q36.73-12.80 36.86-11.90L36.86-11.90L36.86-11.90Q37.39-13.76 38.53-14.72L38.53-14.72L38.53-14.72Q39.68-15.69 41.73-15.69L41.73-15.69L41.73-15.69Q43.18-15.69 44.25-15.14L44.25-15.14L44.25-15.14Q45.32-14.60 46.02-13.59L46.02-13.59L46.02-13.59Q46.72-12.59 47.06-11.16L47.06-11.16L47.06-11.16Q47.40-9.73 47.40-8.00L47.40-8.00L47.40-8.00Q47.40-6.23 46.87-4.73L46.87-4.73L46.87-4.73Q46.34-3.22 45.37-2.14L45.37-2.14L45.37-2.14Q44.39-1.05 43.03-0.43L43.03-0.43L43.03-0.43Q41.66 0.19 39.99 0.19L39.99 0.19L39.99 0.19Q39.40 0.19 38.80 0.12L38.80 0.12L38.80 0.12Q38.19 0.06 37.57 0L37.57 0L37.57 6.23ZM41.14-13.21L41.14-13.21Q40.36-13.21 39.71-12.68L39.71-12.68L39.71-12.68Q39.06-12.15 38.58-11.28L38.58-11.28L38.58-11.28Q38.10-10.42 37.84-9.33L37.84-9.33L37.84-9.33Q37.57-8.25 37.57-7.10L37.57-7.10L37.57-2.63L37.57-2.63Q37.88-2.54 38.50-2.42L38.50-2.42L38.50-2.42Q39.12-2.29 39.59-2.29L39.59-2.29L39.59-2.29Q40.77-2.29 41.54-2.70L41.54-2.70L41.54-2.70Q42.31-3.10 42.78-3.81L42.78-3.81L42.78-3.81Q43.24-4.53 43.43-5.52L43.43-5.52L43.43-5.52Q43.62-6.51 43.62-7.69L43.62-7.69L43.62-7.69Q43.62-8.77 43.55-9.77L43.55-9.77L43.55-9.77Q43.49-10.76 43.23-11.53L43.23-11.53L43.23-11.53Q42.97-12.31 42.47-12.76L42.47-12.76L42.47-12.76Q41.97-13.21 41.14-13.21L41.14-13.21ZM53.78 0.12L53.78 0.12Q52.14 0.12 51.27-0.85L51.27-0.85L51.27-0.85Q50.41-1.83 50.41-3.38L50.41-3.38L50.41-15.44L53.94-15.44L53.94-3.69L53.94-3.69Q53.94-2.98 54.16-2.73L54.16-2.73L54.16-2.73Q54.37-2.48 54.81-2.48L54.81-2.48L54.81-2.48Q54.93-2.48 55.07-2.48L55.07-2.48L55.07-2.48Q55.21-2.48 55.34-2.51L55.34-2.51L55.34-2.51Q55.46-2.51 55.61-2.54L55.61-2.54L55.99-0.31L55.99-0.31Q55.77-0.19 55.43-0.09L55.43-0.09L55.43-0.09Q55.15 0 54.73 0.06L54.73 0.06L54.73 0.06Q54.31 0.12 53.78 0.12L53.78 0.12ZM52.23-22.32L52.23-22.32Q53.23-22.32 53.75-21.73L53.75-21.73L53.75-21.73Q54.28-21.14 54.28-20.21L54.28-20.21L54.28-20.21Q54.28-19.28 53.74-18.66L53.74-18.66L53.74-18.66Q53.20-18.04 52.14-18.04L52.14-18.04L52.14-18.04Q51.15-18.04 50.61-18.65L50.61-18.65L50.61-18.65Q50.06-19.25 50.06-20.12L50.06-20.12L50.06-20.12Q50.06-21.08 50.61-21.70L50.61-21.70L50.61-21.70Q51.15-22.32 52.23-22.32L52.23-22.32ZM63.02-15.81L63.02-15.81L63.02-15.81Q63.92-15.81 64.79-15.62L64.79-15.62L64.79-15.62Q65.66-15.44 66.34-15.19L66.34-15.19L66.34-15.19Q67.15-14.91 67.83-14.60L67.83-14.60L66.77-12.18L66.77-12.18Q66.15-12.46 65.53-12.68L65.53-12.68L65.53-12.68Q65.01-12.87 64.37-13.04L64.37-13.04L64.37-13.04Q63.74-13.21 63.12-13.21L63.12-13.21L63.12-13.21Q62.40-13.21 61.89-12.87L61.89-12.87L61.89-12.87Q61.38-12.52 61.38-11.84L61.38-11.84L61.38-11.84Q61.38-10.07 63.95-9.08L63.95-9.08L63.95-9.08Q64.91-8.71 65.69-8.29L65.69-8.29L65.69-8.29Q66.46-7.87 67.01-7.32L67.01-7.32L67.01-7.32Q67.55-6.76 67.83-6.03L67.83-6.03L67.83-6.03Q68.11-5.30 68.11-4.31L68.11-4.31L68.11-4.31Q68.11-3.44 67.75-2.60L67.75-2.60L67.75-2.60Q67.39-1.77 66.70-1.12L66.70-1.12L66.70-1.12Q66.00-0.46 64.99-0.08L64.99-0.08L64.99-0.08Q63.98 0.31 62.71 0.31L62.71 0.31L62.71 0.31Q61.69 0.31 60.70 0.08L60.70 0.08L60.70 0.08Q59.71-0.15 58.92-0.43L58.92-0.43L58.92-0.43Q58.13-0.71 57.66-0.96L57.66-0.96L57.20-1.18L58.34-3.78L58.74-3.56L58.74-3.56Q59.15-3.32 59.77-3.04L59.77-3.04L59.77-3.04Q60.39-2.76 61.10-2.53L61.10-2.53L61.10-2.53Q61.81-2.29 62.40-2.29L62.40-2.29L62.40-2.29Q63.49-2.29 64.02-2.73L64.02-2.73L64.02-2.73Q64.54-3.16 64.54-3.88L64.54-3.88L64.54-3.88Q64.54-4.68 63.97-5.35L63.97-5.35L63.97-5.35Q63.40-6.01 62.25-6.45L62.25-6.45L62.25-6.45Q59.86-7.35 58.82-8.49L58.82-8.49L58.82-8.49Q57.78-9.64 57.78-11.47L57.78-11.47L57.78-11.47Q57.78-12.34 58.19-13.13L58.19-13.13L58.19-13.13Q58.59-13.92 59.29-14.52L59.29-14.52L59.29-14.52Q59.98-15.13 60.95-15.47L60.95-15.47L60.95-15.47Q61.91-15.81 63.02-15.81ZM84.01-15.44L83.86-6.26L83.86-6.26Q83.86-5.33 83.99-4.56L83.99-4.56L83.99-4.56Q84.13-3.78 84.30-3.02L84.30-3.02L84.30-3.02Q84.47-2.26 84.63-1.49L84.63-1.49L84.63-1.49Q84.78-0.71 84.78 0.22L84.78 0.22L84.78 0.22Q84.78 3.50 83.11 5.12L83.11 5.12L83.11 5.12Q81.44 6.73 78.58 6.73L78.58 6.73L78.58 6.73Q77.66 6.73 76.72 6.56L76.72 6.56L76.72 6.56Q75.80 6.39 75.00 6.17L75.00 6.17L75.00 6.17Q74.21 5.95 73.66 5.74L73.66 5.74L73.66 5.74Q73.10 5.52 72.91 5.42L72.91 5.42L73.78 2.73L73.78 2.73Q74.21 2.91 74.76 3.12L74.76 3.12L74.76 3.12Q75.30 3.32 75.87 3.50L75.87 3.50L75.87 3.50Q76.45 3.69 77.07 3.81L77.07 3.81L77.07 3.81Q77.69 3.94 78.28 3.94L78.28 3.94L78.28 3.94Q80.01 3.94 80.79 2.90L80.79 2.90L80.79 2.90Q81.56 1.86 81.56 0.22L81.56 0.22L81.56 0.22Q81.56-1.27 80.94-2.85L80.94-2.85L80.94-2.85Q80.07-1.21 78.63-0.51L78.63-0.51L78.63-0.51Q77.19 0.19 75.61 0.19L75.61 0.19L75.61 0.19Q73.16 0.19 72.12-1.24L72.12-1.24L72.12-1.24Q71.08-2.67 71.08-5.15L71.08-5.15L71.08-15.44L74.62-15.44L74.62-5.24L74.62-5.24Q74.62-3.94 75.08-3.19L75.08-3.19L75.08-3.19Q75.55-2.45 76.66-2.45L76.66-2.45L76.66-2.45Q77.25-2.45 77.92-2.79L77.92-2.79L77.92-2.79Q78.58-3.13 79.13-3.74L79.13-3.74L79.13-3.74Q79.67-4.34 80.03-5.19L80.03-5.19L80.03-5.19Q80.38-6.04 80.38-7.04L80.38-7.04L80.38-15.44L84.01-15.44ZM104.50-15.44L108.10-15.44L108.16-15.19L108.16-15.19Q108.19-14.91 108.25-14.48L108.25-14.48L108.25-14.48Q108.31-14.04 108.36-13.45L108.36-13.45L108.36-13.45Q108.41-12.87 108.41-12.28L108.41-12.28L108.41-12.28Q108.41-8.83 108.02-6.45L108.02-6.45L108.02-6.45Q107.63-4.06 106.75-2.59L106.75-2.59L106.75-2.59Q105.86-1.12 104.41-0.45L104.41-0.45L104.41-0.45Q102.95 0.22 100.81 0.22L100.81 0.22L100.81 0.22Q97.80 0.22 96.69-2.26L96.69-2.26L96.69-2.26Q96.13-0.99 95.15-0.39L95.15-0.39L95.15-0.39Q94.18 0.22 92.29 0.22L92.29 0.22L92.29 0.22Q89.87 0.22 88.81-1.18L88.81-1.18L88.81-1.18Q87.76-2.57 87.76-5.05L87.76-5.05L87.76-15.44L91.30-15.44L91.30-5.33L91.30-5.33Q91.30-4.03 91.76-3.18L91.76-3.18L91.76-3.18Q92.22-2.33 93.34-2.33L93.34-2.33L93.34-2.33Q94.77-2.33 95.54-3.72L95.54-3.72L95.54-3.72Q96.32-5.12 96.32-8.34L96.32-8.34L96.32-15.44L99.82-15.44L99.82-15.44Q99.79-13.11 99.79-11.13L99.79-11.13L99.79-11.13Q99.79-10.26 99.77-9.39L99.77-9.39L99.77-9.39Q99.76-8.53 99.76-7.75L99.76-7.75L99.76-7.75Q99.76-6.97 99.76-6.34L99.76-6.34L99.76-6.34Q99.76-5.70 99.76-5.33L99.76-5.33L99.76-5.33Q99.76-4.03 100.25-3.18L100.25-3.18L100.25-3.18Q100.75-2.33 101.87-2.33L101.87-2.33L101.87-2.33Q102.95-2.33 103.56-3.16L103.56-3.16L103.56-3.16Q104.16-4.00 104.44-5.35L104.44-5.35L104.44-5.35Q104.72-6.70 104.78-8.42L104.78-8.42L104.78-8.42Q104.84-10.14 104.84-11.90L104.84-11.90L104.84-11.90Q104.84-12.62 104.80-13.25L104.80-13.25L104.80-13.25Q104.75-13.89 104.67-14.38L104.67-14.38L104.67-14.38Q104.59-14.88 104.56-15.16L104.56-15.16L104.50-15.44ZM124.28-14.79L124.28-7.47L124.28-7.47Q124.28-5.61 124.51-4.36L124.51-4.36L124.51-4.36Q124.74-3.10 125.02-2.33L125.02-2.33L125.02-2.33Q125.36-1.40 125.77-0.87L125.77-0.87L123.01 0.25L123.01 0.25Q122.60-0.15 122.26-0.71L122.26-0.71L122.26-0.71Q121.98-1.21 121.74-1.91L121.74-1.91L121.74-1.91Q121.49-2.60 121.43-3.56L121.43-3.56L121.43-3.56Q120.90-1.71 119.74-0.76L119.74-0.76L119.74-0.76Q118.57 0.19 116.59 0.19L116.59 0.19L116.59 0.19Q115.13 0.19 114.06-0.36L114.06-0.36L114.06-0.36Q112.99-0.90 112.28-1.91L112.28-1.91L112.28-1.91Q111.57-2.91 111.23-4.34L111.23-4.34L111.23-4.34Q110.89-5.77 110.89-7.50L110.89-7.50L110.89-7.50Q110.89-9.27 111.43-10.77L111.43-10.77L111.43-10.77Q111.97-12.28 112.95-13.36L112.95-13.36L112.95-13.36Q113.92-14.45 115.29-15.07L115.29-15.07L115.29-15.07Q116.65-15.69 118.30-15.69L118.30-15.69L118.30-15.69Q119.23-15.69 120.23-15.55L120.23-15.55L120.23-15.55Q121.24-15.41 122.11-15.25L122.11-15.25L122.11-15.25Q122.98-15.10 123.58-14.96L123.58-14.96L123.58-14.96Q124.19-14.82 124.28-14.79L124.28-14.79ZM117.18-2.29L117.18-2.29Q117.95-2.29 118.61-2.82L118.61-2.82L118.61-2.82Q119.26-3.35 119.74-4.20L119.74-4.20L119.74-4.20Q120.22-5.05 120.48-6.15L120.48-6.15L120.48-6.15Q120.74-7.25 120.74-8.40L120.74-8.40L120.74-12.87L120.74-12.87Q120.43-12.96 119.81-13.08L119.81-13.08L119.81-13.08Q119.19-13.21 118.70-13.21L118.70-13.21L118.70-13.21Q117.52-13.21 116.76-12.80L116.76-12.80L116.76-12.80Q116.00-12.40 115.54-11.69L115.54-11.69L115.54-11.69Q115.07-10.97 114.89-9.98L114.89-9.98L114.89-9.98Q114.70-8.99 114.70-7.81L114.70-7.81L114.70-7.81Q114.70-6.73 114.76-5.74L114.76-5.74L114.76-5.74Q114.82-4.74 115.09-3.97L115.09-3.97L115.09-3.97Q115.35-3.19 115.85-2.74L115.85-2.74L115.85-2.74Q116.34-2.29 117.18-2.29L117.18-2.29ZM140.93 0L137.42 0L137.42-10.01L137.42-10.01Q137.42-11.31 136.96-12.11L136.96-12.11L136.96-12.11Q136.49-12.90 135.38-12.90L135.38-12.90L135.38-12.90Q134.66-12.90 134.00-12.54L134.00-12.54L134.00-12.54Q133.33-12.18 132.80-11.50L132.80-11.50L132.80-11.50Q132.28-10.82 131.95-9.84L131.95-9.84L131.95-9.84Q131.63-8.87 131.63-7.66L131.63-7.66L131.63 0L128.09 0L128.09-7.81L128.09-7.81Q128.09-9.67 127.84-10.93L127.84-10.93L127.84-10.93Q127.60-12.18 127.32-12.96L127.32-12.96L127.32-12.96Q126.98-13.86 126.57-14.41L126.57-14.41L129.36-15.53L129.36-15.53Q129.67-15.19 129.98-14.69L129.98-14.69L129.98-14.69Q130.23-14.26 130.48-13.62L130.48-13.62L130.48-13.62Q130.73-12.99 130.88-12.18L130.88-12.18L130.88-12.18Q131.69-14.04 133.21-14.86L133.21-14.86L133.21-14.86Q134.73-15.69 136.40-15.69L136.40-15.69L136.40-15.69Q138.79-15.69 139.86-14.24L139.86-14.24L139.86-14.24Q140.93-12.80 140.93-10.35L140.93-10.35L140.93 0ZM148.09 0.12L148.09 0.12Q146.44 0.12 145.58-0.85L145.58-0.85L145.58-0.85Q144.71-1.83 144.71-3.38L144.71-3.38L144.71-15.44L148.24-15.44L148.24-3.69L148.24-3.69Q148.24-2.98 148.46-2.73L148.46-2.73L148.46-2.73Q148.68-2.48 149.11-2.48L149.11-2.48L149.11-2.48Q149.23-2.48 149.37-2.48L149.37-2.48L149.37-2.48Q149.51-2.48 149.64-2.51L149.64-2.51L149.64-2.51Q149.76-2.51 149.92-2.54L149.92-2.54L150.29-0.31L150.29-0.31Q150.07-0.19 149.73-0.09L149.73-0.09L149.73-0.09Q149.45 0 149.03 0.06L149.03 0.06L149.03 0.06Q148.61 0.12 148.09 0.12L148.09 0.12ZM146.54-22.32L146.54-22.32Q147.53-22.32 148.06-21.73L148.06-21.73L148.06-21.73Q148.58-21.14 148.58-20.21L148.58-20.21L148.58-20.21Q148.58-19.28 148.04-18.66L148.04-18.66L148.04-18.66Q147.50-18.04 146.44-18.04L146.44-18.04L146.44-18.04Q145.45-18.04 144.91-18.65L144.91-18.65L144.91-18.65Q144.37-19.25 144.37-20.12L144.37-20.12L144.37-20.12Q144.37-21.08 144.91-21.70L144.91-21.70L144.91-21.70Q145.45-22.32 146.54-22.32L146.54-22.32ZM151.84-7.35L151.84-7.35Q151.84-9.42 152.41-11.01L152.41-11.01L152.41-11.01Q152.98-12.59 153.99-13.66L153.99-13.66L153.99-13.66Q155-14.72 156.36-15.27L156.36-15.27L156.36-15.27Q157.73-15.81 159.31-15.81L159.31-15.81L159.31-15.81Q160.70-15.81 161.68-15.47L161.68-15.47L161.68-15.47Q162.66-15.13 163.28-14.54L163.28-14.54L163.28-14.54Q163.90-13.95 164.19-13.14L164.19-13.14L164.19-13.14Q164.49-12.34 164.49-11.41L164.49-11.41L164.49-11.41Q164.49-10.29 163.87-9.28L163.87-9.28L163.87-9.28Q163.25-8.28 162.08-7.52L162.08-7.52L162.08-7.52Q160.92-6.76 159.28-6.31L159.28-6.31L159.28-6.31Q157.63-5.86 155.59-5.83L155.59-5.83L155.59-5.83Q155.68-5.12 155.88-4.48L155.88-4.48L155.88-4.48Q156.08-3.84 156.47-3.36L156.47-3.36L156.47-3.36Q156.86-2.88 157.48-2.60L157.48-2.60L157.48-2.60Q158.10-2.33 159.03-2.33L159.03-2.33L159.03-2.33Q159.71-2.33 160.49-2.48L160.49-2.48L160.49-2.48Q161.26-2.63 161.91-2.85L161.91-2.85L161.91-2.85Q162.69-3.10 163.43-3.41L163.43-3.41L164.36-1.21L164.36-1.21Q163.56-0.81 162.63-0.50L162.63-0.50L162.63-0.50Q161.82-0.22 160.77 0L160.77 0L160.77 0Q159.71 0.22 158.53 0.22L158.53 0.22L158.53 0.22Q156.74 0.22 155.46-0.33L155.46-0.33L155.46-0.33Q154.19-0.87 153.39-1.86L153.39-1.86L153.39-1.86Q152.58-2.85 152.21-4.25L152.21-4.25L152.21-4.25Q151.84-5.64 151.84-7.35L151.84-7.35ZM159.03-13.39L159.03-13.39Q158.01-13.39 157.34-12.91L157.34-12.91L157.34-12.91Q156.67-12.43 156.27-11.67L156.27-11.67L156.27-11.67Q155.87-10.91 155.70-9.97L155.70-9.97L155.70-9.97Q155.53-9.02 155.50-8.06L155.50-8.06L155.50-8.06Q156.98-8.12 158.02-8.45L158.02-8.45L158.02-8.45Q159.06-8.77 159.71-9.25L159.71-9.25L159.71-9.25Q160.36-9.73 160.66-10.29L160.66-10.29L160.66-10.29Q160.95-10.85 160.95-11.41L160.95-11.41L160.95-11.41Q160.95-12.31 160.42-12.85L160.42-12.85L160.42-12.85Q159.90-13.39 159.03-13.39L159.03-13.39ZM185.01-21.08L183.49-19.07L183.49-19.07Q183.40-19.16 182.92-19.41L182.92-19.41L182.92-19.41Q182.44-19.65 182.00-19.65L182.00-19.65L182.00-19.65Q181.72-19.65 181.32-19.58L181.32-19.58L181.32-19.58Q180.92-19.50 180.54-19.24L180.54-19.24L180.54-19.24Q180.17-18.97 179.91-18.48L179.91-18.48L179.91-18.48Q179.65-17.98 179.65-17.17L179.65-17.17L179.65-17.17Q179.65-16.83 179.69-16.40L179.69-16.40L179.69-16.40Q179.74-15.96 179.89-15.44L179.89-15.44L183.74-15.44L183.30-12.93L180.08-12.93L180.08-0.78L180.08-0.78Q180.08 1.08 179.60 2.34L179.60 2.34L179.60 2.34Q179.12 3.60 178.34 4.45L178.34 4.45L178.34 4.45Q177.57 5.30 176.62 5.87L176.62 5.87L176.62 5.87Q175.68 6.45 174.75 6.91L174.75 6.91L173.32 4.56L173.32 4.56Q174.47 3.97 175.12 3.30L175.12 3.30L175.12 3.30Q175.77 2.63 176.10 1.97L176.10 1.97L176.10 1.97Q176.42 1.30 176.48 0.68L176.48 0.68L176.48 0.68Q176.54 0.06 176.54-0.43L176.54-0.43L176.54-12.93L173.75-12.93L173.75-15.44L176.45-15.44L176.45-15.44Q176.33-15.90 176.28-16.40L176.28-16.40L176.28-16.40Q176.23-16.89 176.23-17.33L176.23-17.33L176.23-17.33Q176.23-18.57 176.68-19.53L176.68-19.53L176.68-19.53Q177.13-20.49 177.89-21.11L177.89-21.11L177.89-21.11Q178.65-21.73 179.66-22.06L179.66-22.06L179.66-22.06Q180.67-22.38 181.75-22.38L181.75-22.38L181.75-22.38Q182.96-22.38 183.74-21.99L183.74-21.99L183.74-21.99Q184.51-21.61 185.01-21.08L185.01-21.08ZM192.70-12.21L192.70-12.21Q192.14-12.21 191.58-11.94L191.58-11.94L191.58-11.94Q191.02-11.66 190.59-11.18L190.59-11.18L190.59-11.18Q190.15-10.70 189.88-10.01L189.88-10.01L189.88-10.01Q189.60-9.33 189.60-8.49L189.60-8.49L189.60 0L186.06 0L186.06-7.81L186.06-7.81Q186.06-9.67 185.81-10.93L185.81-10.93L185.81-10.93Q185.57-12.18 185.29-12.96L185.29-12.96L185.29-12.96Q184.95-13.86 184.54-14.41L184.54-14.41L187.33-15.53L187.33-15.53Q187.61-15.19 187.92-14.69L187.92-14.69L187.92-14.69Q188.17-14.26 188.42-13.67L188.42-13.67L188.42-13.67Q188.67-13.08 188.82-12.28L188.82-12.28L188.82-12.28Q189.44-14.07 190.62-14.86L190.62-14.86L190.62-14.86Q191.80-15.65 193.28-15.65L193.28-15.65L193.28-15.65Q194.00-15.65 194.62-15.48L194.62-15.48L194.62-15.48Q195.24-15.31 195.21-15.31L195.21-15.31L194.22-11.87L194.22-11.87Q194.25-11.87 193.86-12.04L193.86-12.04L193.86-12.04Q193.47-12.21 192.70-12.21L192.70-12.21ZM208.75-14.79L208.75-7.47L208.75-7.47Q208.75-5.61 208.99-4.36L208.99-4.36L208.99-4.36Q209.22-3.10 209.50-2.33L209.50-2.33L209.50-2.33Q209.84-1.40 210.24-0.87L210.24-0.87L207.48 0.25L207.48 0.25Q207.08-0.15 206.74-0.71L206.74-0.71L206.74-0.71Q206.46-1.21 206.21-1.91L206.21-1.91L206.21-1.91Q205.96-2.60 205.90-3.56L205.90-3.56L205.90-3.56Q205.38-1.71 204.21-0.76L204.21-0.76L204.21-0.76Q203.05 0.19 201.07 0.19L201.07 0.19L201.07 0.19Q199.61 0.19 198.54-0.36L198.54-0.36L198.54-0.36Q197.47-0.90 196.76-1.91L196.76-1.91L196.76-1.91Q196.04-2.91 195.70-4.34L195.70-4.34L195.70-4.34Q195.36-5.77 195.36-7.50L195.36-7.50L195.36-7.50Q195.36-9.27 195.90-10.77L195.90-10.77L195.90-10.77Q196.45-12.28 197.42-13.36L197.42-13.36L197.42-13.36Q198.40-14.45 199.76-15.07L199.76-15.07L199.76-15.07Q201.13-15.69 202.77-15.69L202.77-15.69L202.77-15.69Q203.70-15.69 204.71-15.55L204.71-15.55L204.71-15.55Q205.72-15.41 206.58-15.25L206.58-15.25L206.58-15.25Q207.45-15.10 208.06-14.96L208.06-14.96L208.06-14.96Q208.66-14.82 208.75-14.79L208.75-14.79ZM201.65-2.29L201.65-2.29Q202.43-2.29 203.08-2.82L203.08-2.82L203.08-2.82Q203.73-3.35 204.21-4.20L204.21-4.20L204.21-4.20Q204.69-5.05 204.96-6.15L204.96-6.15L204.96-6.15Q205.22-7.25 205.22-8.40L205.22-8.40L205.22-12.87L205.22-12.87Q204.91-12.96 204.29-13.08L204.29-13.08L204.29-13.08Q203.67-13.21 203.17-13.21L203.17-13.21L203.17-13.21Q202.00-13.21 201.24-12.80L201.24-12.80L201.24-12.80Q200.48-12.40 200.01-11.69L200.01-11.69L200.01-11.69Q199.55-10.97 199.36-9.98L199.36-9.98L199.36-9.98Q199.17-8.99 199.17-7.81L199.17-7.81L199.17-7.81Q199.17-6.73 199.24-5.74L199.24-5.74L199.24-5.74Q199.30-4.74 199.56-3.97L199.56-3.97L199.56-3.97Q199.83-3.19 200.32-2.74L200.32-2.74L200.32-2.74Q200.82-2.29 201.65-2.29L201.65-2.29ZM214.36 5.42L215.23 2.73L215.23 2.73Q215.70 2.91 216.22 3.12L216.22 3.12L216.22 3.12Q216.75 3.32 217.34 3.50L217.34 3.50L217.34 3.50Q217.93 3.69 218.53 3.81L218.53 3.81L218.53 3.81Q219.14 3.94 219.73 3.94L219.73 3.94L219.73 3.94Q221.46 3.94 222.24 2.90L222.24 2.90L222.24 2.90Q223.01 1.86 223.01 0.22L223.01 0.22L223.01 0.22Q223.01-1.40 222.33-3.04L222.33-3.04L222.33-3.04Q221.80-1.46 220.67-0.64L220.67-0.64L220.67-0.64Q219.54 0.19 217.68 0.19L217.68 0.19L217.68 0.19Q216.22 0.19 215.16-0.36L215.16-0.36L215.16-0.36Q214.09-0.90 213.37-1.91L213.37-1.91L213.37-1.91Q212.66-2.91 212.32-4.34L212.32-4.34L212.32-4.34Q211.98-5.77 211.98-7.50L211.98-7.50L211.98-7.50Q211.98-9.27 212.52-10.77L212.52-10.77L212.52-10.77Q213.06-12.28 214.04-13.36L214.04-13.36L214.04-13.36Q215.02-14.45 216.38-15.07L216.38-15.07L216.38-15.07Q217.74-15.69 219.39-15.69L219.39-15.69L219.39-15.69Q220.13-15.69 220.98-15.59L220.98-15.59L220.98-15.59Q221.84-15.50 222.66-15.36L222.66-15.36L222.66-15.36Q223.48-15.22 224.21-15.07L224.21-15.07L224.21-15.07Q224.94-14.91 225.46-14.79L225.46-14.79L225.31-6.26L225.31-6.26Q225.28-5.33 225.42-4.56L225.42-4.56L225.42-4.56Q225.56-3.78 225.74-3.02L225.74-3.02L225.74-3.02Q225.93-2.26 226.08-1.49L226.08-1.49L226.08-1.49Q226.24-0.71 226.24 0.22L226.24 0.22L226.24 0.22Q226.24 3.50 224.56 5.12L224.56 5.12L224.56 5.12Q222.89 6.73 220.04 6.73L220.04 6.73L220.04 6.73Q219.11 6.73 218.18 6.56L218.18 6.56L218.18 6.56Q217.25 6.39 216.46 6.17L216.46 6.17L216.46 6.17Q215.67 5.95 215.11 5.74L215.11 5.74L215.11 5.74Q214.55 5.52 214.36 5.42L214.36 5.42ZM218.27-2.29L218.27-2.29Q219.01-2.29 219.65-2.79L219.65-2.79L219.65-2.79Q220.29-3.29 220.78-4.11L220.78-4.11L220.78-4.11Q221.28-4.93 221.56-5.98L221.56-5.98L221.56-5.98Q221.84-7.04 221.84-8.15L221.84-8.15L221.84-12.87L221.84-12.87Q221.53-12.96 220.91-13.08L220.91-13.08L220.91-13.08Q220.29-13.21 219.79-13.21L219.79-13.21L219.79-13.21Q218.61-13.21 217.85-12.80L217.85-12.80L217.85-12.80Q217.09-12.40 216.63-11.69L216.63-11.69L216.63-11.69Q216.16-10.97 215.98-9.98L215.98-9.98L215.98-9.98Q215.79-8.99 215.79-7.81L215.79-7.81L215.79-7.81Q215.79-6.73 215.85-5.74L215.85-5.74L215.85-5.74Q215.91-4.74 216.18-3.97L216.18-3.97L216.18-3.97Q216.44-3.19 216.94-2.74L216.94-2.74L216.94-2.74Q217.43-2.29 218.27-2.29L218.27-2.29ZM250.26 0L246.76 0L246.76-10.11L246.76-10.11Q246.76-11.41 246.36-12.17L246.36-12.17L246.36-12.17Q245.95-12.93 244.96-12.93L244.96-12.93L244.96-12.93Q244.37-12.93 243.77-12.60L243.77-12.60L243.77-12.60Q243.16-12.28 242.67-11.66L242.67-11.66L242.67-11.66Q242.17-11.04 241.86-10.17L241.86-10.17L241.86-10.17Q241.55-9.30 241.55-8.25L241.55-8.25L241.55 0L238.05 0L238.05-10.11L238.05-10.11Q238.05-11.41 237.65-12.17L237.65-12.17L237.65-12.17Q237.24-12.93 236.25-12.93L236.25-12.93L236.25-12.93Q235.63-12.93 235.03-12.57L235.03-12.57L235.03-12.57Q234.42-12.21 233.94-11.53L233.94-11.53L233.94-11.53Q233.46-10.85 233.17-9.87L233.17-9.87L233.17-9.87Q232.87-8.90 232.87-7.69L232.87-7.69L232.87 0L229.34 0L229.34-7.81L229.34-7.81Q229.34-9.67 229.09-10.93L229.09-10.93L229.09-10.93Q228.84-12.18 228.56-12.96L228.56-12.96L228.56-12.96Q228.22-13.86 227.82-14.41L227.82-14.41L230.61-15.53L230.61-15.53Q230.92-15.19 231.23-14.69L231.23-14.69L231.23-14.69Q231.48-14.26 231.72-13.62L231.72-13.62L231.72-13.62Q231.97-12.99 232.13-12.18L232.13-12.18L232.13-12.18Q232.90-14.04 234.31-14.86L234.31-14.86L234.31-14.86Q235.72-15.69 237.30-15.69L237.30-15.69L237.30-15.69Q238.89-15.69 239.77-14.88L239.77-14.88L239.77-14.88Q240.65-14.07 241.09-12.80L241.09-12.80L241.09-12.80Q241.92-14.35 243.24-15.02L243.24-15.02L243.24-15.02Q244.56-15.69 246.02-15.69L246.02-15.69L246.02-15.69Q247.22-15.69 248.05-15.30L248.05-15.30L248.05-15.30Q248.87-14.91 249.35-14.21L249.35-14.21L249.35-14.21Q249.83-13.52 250.05-12.54L250.05-12.54L250.05-12.54Q250.26-11.56 250.26-10.35L250.26-10.35L250.26 0ZM253.21-7.35L253.21-7.35Q253.21-9.42 253.78-11.01L253.78-11.01L253.78-11.01Q254.35-12.59 255.36-13.66L255.36-13.66L255.36-13.66Q256.37-14.72 257.73-15.27L257.73-15.27L257.73-15.27Q259.10-15.81 260.68-15.81L260.68-15.81L260.68-15.81Q262.07-15.81 263.05-15.47L263.05-15.47L263.05-15.47Q264.03-15.13 264.65-14.54L264.65-14.54L264.65-14.54Q265.27-13.95 265.56-13.14L265.56-13.14L265.56-13.14Q265.86-12.34 265.86-11.41L265.86-11.41L265.86-11.41Q265.86-10.29 265.24-9.28L265.24-9.28L265.24-9.28Q264.62-8.28 263.45-7.52L263.45-7.52L263.45-7.52Q262.29-6.76 260.65-6.31L260.65-6.31L260.65-6.31Q259.00-5.86 256.96-5.83L256.96-5.83L256.96-5.83Q257.05-5.12 257.25-4.48L257.25-4.48L257.25-4.48Q257.45-3.84 257.84-3.36L257.84-3.36L257.84-3.36Q258.23-2.88 258.85-2.60L258.85-2.60L258.85-2.60Q259.47-2.33 260.40-2.33L260.40-2.33L260.40-2.33Q261.08-2.33 261.86-2.48L261.86-2.48L261.86-2.48Q262.63-2.63 263.28-2.85L263.28-2.85L263.28-2.85Q264.06-3.10 264.80-3.41L264.80-3.41L265.73-1.21L265.73-1.21Q264.93-0.81 264.00-0.50L264.00-0.50L264.00-0.50Q263.19-0.22 262.14 0L262.14 0L262.14 0Q261.08 0.22 259.90 0.22L259.90 0.22L259.90 0.22Q258.11 0.22 256.83-0.33L256.83-0.33L256.83-0.33Q255.56-0.87 254.76-1.86L254.76-1.86L254.76-1.86Q253.95-2.85 253.58-4.25L253.58-4.25L253.58-4.25Q253.21-5.64 253.21-7.35L253.21-7.35ZM260.40-13.39L260.40-13.39Q259.38-13.39 258.71-12.91L258.71-12.91L258.71-12.91Q258.04-12.43 257.64-11.67L257.64-11.67L257.64-11.67Q257.24-10.91 257.07-9.97L257.07-9.97L257.07-9.97Q256.90-9.02 256.87-8.06L256.87-8.06L256.87-8.06Q258.35-8.12 259.39-8.45L259.39-8.45L259.39-8.45Q260.43-8.77 261.08-9.25L261.08-9.25L261.08-9.25Q261.73-9.73 262.03-10.29L262.03-10.29L262.03-10.29Q262.32-10.85 262.32-11.41L262.32-11.41L262.32-11.41Q262.32-12.31 261.80-12.85L261.80-12.85L261.80-12.85Q261.27-13.39 260.40-13.39L260.40-13.39ZM281.91 0L278.41 0L278.41-10.01L278.41-10.01Q278.41-11.31 277.95-12.11L277.95-12.11L277.95-12.11Q277.48-12.90 276.37-12.90L276.37-12.90L276.37-12.90Q275.65-12.90 274.99-12.54L274.99-12.54L274.99-12.54Q274.32-12.18 273.79-11.50L273.79-11.50L273.79-11.50Q273.26-10.82 272.94-9.84L272.94-9.84L272.94-9.84Q272.61-8.87 272.61-7.66L272.61-7.66L272.61 0L269.08 0L269.08-7.81L269.08-7.81Q269.08-9.67 268.83-10.93L268.83-10.93L268.83-10.93Q268.58-12.18 268.31-12.96L268.31-12.96L268.31-12.96Q267.96-13.86 267.56-14.41L267.56-14.41L270.35-15.53L270.35-15.53Q270.66-15.19 270.97-14.69L270.97-14.69L270.97-14.69Q271.22-14.26 271.47-13.62L271.47-13.62L271.47-13.62Q271.71-12.99 271.87-12.18L271.87-12.18L271.87-12.18Q272.68-14.04 274.19-14.86L274.19-14.86L274.19-14.86Q275.71-15.69 277.39-15.69L277.39-15.69L277.39-15.69Q279.77-15.69 280.84-14.24L280.84-14.24L280.84-14.24Q281.91-12.80 281.91-10.35L281.91-10.35L281.91 0ZM284.12-12.93L284.12-15.44L286.91-15.44L287.53-19.07L290.44-19.72L290.44-15.44L294.25-15.44L293.82-12.93L290.44-12.93L290.44-3.75L290.44-3.75Q290.44-2.94 290.87-2.71L290.87-2.71L290.87-2.71Q291.31-2.48 291.83-2.48L291.83-2.48L291.83-2.48Q292.27-2.48 292.70-2.54L292.70-2.54L292.70-2.54Q293.14-2.60 293.48-2.70L293.48-2.70L293.48-2.70Q293.88-2.79 294.25-2.91L294.25-2.91L294.84-0.59L294.56-0.50L294.56-0.50Q294.28-0.37 293.74-0.23L293.74-0.23L293.74-0.23Q293.20-0.09 292.47 0.02L292.47 0.02L292.47 0.02Q291.74 0.12 290.87 0.12L290.87 0.12L290.87 0.12Q290.00 0.12 289.28-0.06L289.28-0.06L289.28-0.06Q288.55-0.25 288.02-0.67L288.02-0.67L288.02-0.67Q287.49-1.08 287.20-1.74L287.20-1.74L287.20-1.74Q286.91-2.39 286.91-3.35L286.91-3.35L286.91-12.93L284.12-12.93ZM302.68-15.81L302.68-15.81Q306.25-15.81 307.86-13.70L307.86-13.70L307.86-13.70Q309.47-11.59 309.47-7.91L309.47-7.91L309.47-7.91Q309.47-6.17 309.04-4.67L309.04-4.67L309.04-4.67Q308.61-3.16 307.72-2.06L307.72-2.06L307.72-2.06Q306.84-0.96 305.50-0.33L305.50-0.33L305.50-0.33Q304.17 0.31 302.41 0.31L302.41 0.31L302.41 0.31Q300.64 0.31 299.35-0.23L299.35-0.23L299.35-0.23Q298.06-0.78 297.23-1.80L297.23-1.80L297.23-1.80Q296.39-2.82 296.00-4.28L296.00-4.28L296.00-4.28Q295.62-5.74 295.62-7.56L295.62-7.56L295.62-7.56Q295.62-9.33 296.05-10.83L296.05-10.83L296.05-10.83Q296.48-12.34 297.37-13.44L297.37-13.44L297.37-13.44Q298.25-14.54 299.58-15.17L299.58-15.17L299.58-15.17Q300.92-15.81 302.68-15.81L302.68-15.81ZM302.37-13.21L302.37-13.21Q301.48-13.21 300.90-12.80L300.90-12.80L300.90-12.80Q300.33-12.40 300.00-11.67L300.00-11.67L300.00-11.67Q299.68-10.94 299.55-9.97L299.55-9.97L299.55-9.97Q299.43-8.99 299.43-7.87L299.43-7.87L299.43-7.87Q299.43-6.73 299.57-5.70L299.57-5.70L299.57-5.70Q299.71-4.68 300.08-3.92L300.08-3.92L300.08-3.92Q300.45-3.16 301.09-2.73L301.09-2.73L301.09-2.73Q301.72-2.29 302.72-2.29L302.72-2.29L302.72-2.29Q303.61-2.29 304.19-2.70L304.19-2.70L304.19-2.70Q304.76-3.10 305.09-3.83L305.09-3.83L305.09-3.83Q305.41-4.56 305.54-5.52L305.54-5.52L305.54-5.52Q305.66-6.48 305.66-7.59L305.66-7.59L305.66-7.59Q305.66-8.74 305.52-9.77L305.52-9.77L305.52-9.77Q305.38-10.79 305.01-11.56L305.01-11.56L305.01-11.56Q304.64-12.34 304.00-12.77L304.00-12.77L304.00-12.77Q303.37-13.21 302.37-13.21L302.37-13.21ZM302.25-16.68L300.73-18.29L306.00-24.15L308.36-21.95L308.36-21.95Q307.43-20.80 306.36-19.84L306.36-19.84L306.36-19.84Q305.29-18.88 304.39-18.17L304.39-18.17L304.39-18.17Q303.33-17.36 302.25-16.68L302.25-16.68ZM329.16-15.44L332.75-15.44L332.82-15.19L332.82-15.19Q332.85-14.91 332.91-14.48L332.91-14.48L332.91-14.48Q332.97-14.04 333.02-13.45L333.02-13.45L333.02-13.45Q333.06-12.87 333.06-12.28L333.06-12.28L333.06-12.28Q333.06-8.83 332.68-6.45L332.68-6.45L332.68-6.45Q332.29-4.06 331.41-2.59L331.41-2.59L331.41-2.59Q330.52-1.12 329.06-0.45L329.06-0.45L329.06-0.45Q327.61 0.22 325.47 0.22L325.47 0.22L325.47 0.22Q322.46 0.22 321.35-2.26L321.35-2.26L321.35-2.26Q320.79-0.99 319.81-0.39L319.81-0.39L319.81-0.39Q318.83 0.22 316.94 0.22L316.94 0.22L316.94 0.22Q314.53 0.22 313.47-1.18L313.47-1.18L313.47-1.18Q312.42-2.57 312.42-5.05L312.42-5.05L312.42-15.44L315.95-15.44L315.95-5.33L315.95-5.33Q315.95-4.03 316.42-3.18L316.42-3.18L316.42-3.18Q316.88-2.33 318.00-2.33L318.00-2.33L318.00-2.33Q319.42-2.33 320.20-3.72L320.20-3.72L320.20-3.72Q320.97-5.12 320.97-8.34L320.97-8.34L320.97-15.44L324.48-15.44L324.48-15.44Q324.45-13.11 324.45-11.13L324.45-11.13L324.45-11.13Q324.45-10.26 324.43-9.39L324.43-9.39L324.43-9.39Q324.41-8.53 324.41-7.75L324.41-7.75L324.41-7.75Q324.41-6.97 324.41-6.34L324.41-6.34L324.41-6.34Q324.41-5.70 324.41-5.33L324.41-5.33L324.41-5.33Q324.41-4.03 324.91-3.18L324.91-3.18L324.91-3.18Q325.41-2.33 326.52-2.33L326.52-2.33L326.52-2.33Q327.61-2.33 328.21-3.16L328.21-3.16L328.21-3.16Q328.82-4.00 329.10-5.35L329.10-5.35L329.10-5.35Q329.38-6.70 329.44-8.42L329.44-8.42L329.44-8.42Q329.50-10.14 329.50-11.90L329.50-11.90L329.50-11.90Q329.50-12.62 329.45-13.25L329.45-13.25L329.45-13.25Q329.41-13.89 329.33-14.38L329.33-14.38L329.33-14.38Q329.25-14.88 329.22-15.16L329.22-15.16L329.16-15.44Z" fill="url(#editing-outline-gradient)"></path></g></g><style>text {

}</style></svg>