<svg id="visual" viewBox="0 0 900 600" width="900" height="600" xmlns="http://www.w3.org/2000/svg" xmlns:xlink="http://www.w3.org/1999/xlink" version="1.1"><path d="M0 157L56 157L56 151L113 151L113 169L169 169L169 145L225 145L225 193L281 193L281 151L338 151L338 139L394 139L394 151L450 151L450 247L506 247L506 157L563 157L563 199L619 199L619 175L675 175L675 229L731 229L731 169L788 169L788 193L844 193L844 181L900 181L900 151L900 0L900 0L844 0L844 0L788 0L788 0L731 0L731 0L675 0L675 0L619 0L619 0L563 0L563 0L506 0L506 0L450 0L450 0L394 0L394 0L338 0L338 0L281 0L281 0L225 0L225 0L169 0L169 0L113 0L113 0L56 0L56 0L0 0Z" fill="#fa7268"></path><path d="M0 283L56 283L56 307L113 307L113 319L169 319L169 301L225 301L225 343L281 343L281 271L338 271L338 247L394 247L394 289L450 289L450 355L506 355L506 277L563 277L563 283L619 283L619 259L675 259L675 325L731 325L731 307L788 307L788 325L844 325L844 325L900 325L900 277L900 149L900 179L844 179L844 191L788 191L788 167L731 167L731 227L675 227L675 173L619 173L619 197L563 197L563 155L506 155L506 245L450 245L450 149L394 149L394 137L338 137L338 149L281 149L281 191L225 191L225 143L169 143L169 167L113 167L113 149L56 149L56 155L0 155Z" fill="#e45765"></path><path d="M0 517L56 517L56 517L113 517L113 505L169 505L169 523L225 523L225 505L281 505L281 499L338 499L338 511L394 511L394 499L450 499L450 505L506 505L506 493L563 493L563 481L619 481L619 505L675 505L675 517L731 517L731 493L788 493L788 535L844 535L844 511L900 511L900 493L900 275L900 323L844 323L844 323L788 323L788 305L731 305L731 323L675 323L675 257L619 257L619 281L563 281L563 275L506 275L506 353L450 353L450 287L394 287L394 245L338 245L338 269L281 269L281 341L225 341L225 299L169 299L169 317L113 317L113 305L56 305L56 281L0 281Z" fill="#cb3d62"></path><path d="M0 601L56 601L56 601L113 601L113 601L169 601L169 601L225 601L225 601L281 601L281 601L338 601L338 601L394 601L394 601L450 601L450 601L506 601L506 601L563 601L563 601L619 601L619 601L675 601L675 601L731 601L731 601L788 601L788 601L844 601L844 601L900 601L900 601L900 491L900 509L844 509L844 533L788 533L788 491L731 491L731 515L675 515L675 503L619 503L619 479L563 479L563 491L506 491L506 503L450 503L450 497L394 497L394 509L338 509L338 497L281 497L281 503L225 503L225 521L169 521L169 503L113 503L113 515L56 515L56 515L0 515Z" fill="#b0235f"></path></svg>