<svg width="680.3px" height="94.39999999999999px" xmlns="http://www.w3.org/2000/svg" viewBox="-90.14999999999998 27.800000000000004 680.3 94.39999999999999" style="background:#596886" preserveAspectRatio="xMidYMid"><defs><filter id="editing-hover" x="-100%" y="-100%" width="300%" height="300%"><feFlood flood-color="#052b4a" result="flood"></feFlood><feComposite operator="in" in2="SourceAlpha" in="flood" result="shadow"></feComposite><feOffset dx="-1.9" dy="-2.6" in="SourceGraphic" result="offset-1"></feOffset><feOffset dx="1.9" dy="2.6" in="shadow" result="offset-2"></feOffset><feMerge><feMergeNode in="offset-2"></feMergeNode><feMergeNode in="offset-1"></feMergeNode></feMerge></filter></defs><g filter="url(#editing-hover)"><g transform="translate(7.359972238540649, 97.54500198364258)"><path d="M22.18 0L1.80 0L1.80-3.19L15.03-26.41L15.03-26.41Q14.13-26.32 13.18-26.30L13.18-26.30L13.18-26.30Q12.24-26.28 11.16-26.28L11.16-26.28L2.56-26.28L1.84-30.46L21.64-30.46L21.64-27.27L8.69-4.09L8.69-4.09Q9.45-4.14 10.26-4.16L10.26-4.16L10.26-4.16Q11.07-4.18 12.01-4.18L12.01-4.18L22.18-4.18L22.18 0ZM43.88-21.46L43.88-10.84L43.88-10.84Q43.88-8.14 44.21-6.32L44.21-6.32L44.21-6.32Q44.55-4.50 44.95-3.38L44.95-3.38L44.95-3.38Q45.45-2.02 46.03-1.26L46.03-1.26L42.03 0.36L42.03 0.36Q41.45-0.22 40.95-1.03L40.95-1.03L40.95-1.03Q40.55-1.75 40.19-2.77L40.19-2.77L40.19-2.77Q39.83-3.78 39.73-5.17L39.73-5.17L39.73-5.17Q38.97-2.48 37.28-1.10L37.28-1.10L37.28-1.10Q35.59 0.27 32.72 0.27L32.72 0.27L32.72 0.27Q30.60 0.27 29.05-0.52L29.05-0.52L29.05-0.52Q27.49-1.30 26.46-2.77L26.46-2.77L26.46-2.77Q25.43-4.23 24.93-6.30L24.93-6.30L24.93-6.30Q24.43-8.37 24.43-10.89L24.43-10.89L24.43-10.89Q24.43-13.46 25.22-15.64L25.22-15.64L25.22-15.64Q26.01-17.82 27.43-19.39L27.43-19.39L27.43-19.39Q28.84-20.97 30.82-21.87L30.82-21.87L30.82-21.87Q32.80-22.77 35.19-22.77L35.19-22.77L35.19-22.77Q36.54-22.77 38.00-22.57L38.00-22.57L38.00-22.57Q39.47-22.36 40.72-22.14L40.72-22.14L40.72-22.14Q41.98-21.91 42.86-21.71L42.86-21.71L42.86-21.71Q43.74-21.51 43.88-21.46L43.88-21.46ZM33.57-3.33L33.57-3.33Q34.70-3.33 35.64-4.09L35.64-4.09L35.64-4.09Q36.59-4.86 37.28-6.10L37.28-6.10L37.28-6.10Q37.98-7.33 38.36-8.93L38.36-8.93L38.36-8.93Q38.74-10.53 38.74-12.20L38.74-12.20L38.74-18.68L38.74-18.68Q38.30-18.81 37.39-18.99L37.39-18.99L37.39-18.99Q36.49-19.17 35.77-19.17L35.77-19.17L35.77-19.17Q34.06-19.17 32.96-18.59L32.96-18.59L32.96-18.59Q31.86-18 31.18-16.96L31.18-16.96L31.18-16.96Q30.51-15.93 30.24-14.49L30.24-14.49L30.24-14.49Q29.97-13.05 29.97-11.34L29.97-11.34L29.97-11.34Q29.97-9.76 30.06-8.32L30.06-8.32L30.06-8.32Q30.15-6.88 30.53-5.76L30.53-5.76L30.53-5.76Q30.91-4.63 31.63-3.98L31.63-3.98L31.63-3.98Q32.35-3.33 33.57-3.33L33.57-3.33ZM54.54 9.04L49.41 9.95L49.41-11.34L49.41-11.34Q49.41-14.04 49.05-15.86L49.05-15.86L49.05-15.86Q48.69-17.68 48.28-18.81L48.28-18.81L48.28-18.81Q47.79-20.11 47.20-20.93L47.20-20.93L51.25-22.54L51.25-22.54Q51.80-22.00 52.24-21.20L52.24-21.20L52.24-21.20Q52.60-20.52 52.96-19.55L52.96-19.55L52.96-19.55Q53.32-18.59 53.50-17.28L53.50-17.28L53.50-17.28Q54.27-19.98 55.94-21.38L55.94-21.38L55.94-21.38Q57.60-22.77 60.57-22.77L60.57-22.77L60.57-22.77Q62.69-22.77 64.24-21.98L64.24-21.98L64.24-21.98Q65.79-21.20 66.80-19.73L66.80-19.73L66.80-19.73Q67.81-18.27 68.31-16.20L68.31-16.20L68.31-16.20Q68.80-14.13 68.80-11.61L68.80-11.61L68.80-11.61Q68.80-9.04 68.04-6.86L68.04-6.86L68.04-6.86Q67.28-4.68 65.86-3.10L65.86-3.10L65.86-3.10Q64.44-1.53 62.46-0.63L62.46-0.63L62.46-0.63Q60.48 0.27 58.05 0.27L58.05 0.27L58.05 0.27Q57.20 0.27 56.32 0.18L56.32 0.18L56.32 0.18Q55.44 0.09 54.54 0L54.54 0L54.54 9.04ZM59.71-19.17L59.71-19.17Q58.59-19.17 57.64-18.40L57.64-18.40L57.64-18.40Q56.70-17.64 56.00-16.38L56.00-16.38L56.00-16.38Q55.30-15.12 54.92-13.54L54.92-13.54L54.92-13.54Q54.54-11.97 54.54-10.30L54.54-10.30L54.54-3.82L54.54-3.82Q54.99-3.69 55.89-3.51L55.89-3.51L55.89-3.51Q56.79-3.33 57.46-3.33L57.46-3.33L57.46-3.33Q59.17-3.33 60.30-3.92L60.30-3.92L60.30-3.92Q61.42-4.50 62.10-5.54L62.10-5.54L62.10-5.54Q62.77-6.57 63.05-8.01L63.05-8.01L63.05-8.01Q63.31-9.45 63.31-11.16L63.31-11.16L63.31-11.16Q63.31-12.73 63.22-14.17L63.22-14.17L63.22-14.17Q63.13-15.62 62.75-16.74L62.75-16.74L62.75-16.74Q62.37-17.86 61.65-18.52L61.65-18.52L61.65-18.52Q60.93-19.17 59.71-19.17L59.71-19.17ZM78.08 0.18L78.08 0.18Q75.69 0.18 74.43-1.24L74.43-1.24L74.43-1.24Q73.17-2.65 73.17-4.91L73.17-4.91L73.17-22.41L78.30-22.41L78.30-5.35L78.30-5.35Q78.30-4.32 78.61-3.96L78.61-3.96L78.61-3.96Q78.93-3.60 79.56-3.60L79.56-3.60L79.56-3.60Q79.74-3.60 79.94-3.60L79.94-3.60L79.94-3.60Q80.14-3.60 80.33-3.65L80.33-3.65L80.33-3.65Q80.50-3.65 80.73-3.69L80.73-3.69L81.27-0.45L81.27-0.45Q80.95-0.27 80.46-0.14L80.46-0.14L80.46-0.14Q80.05 0 79.45 0.09L79.45 0.09L79.45 0.09Q78.84 0.18 78.08 0.18L78.08 0.18ZM75.83-32.40L75.83-32.40Q77.27-32.40 78.03-31.54L78.03-31.54L78.03-31.54Q78.80-30.69 78.80-29.34L78.80-29.34L78.80-29.34Q78.80-27.99 78.01-27.09L78.01-27.09L78.01-27.09Q77.22-26.19 75.69-26.19L75.69-26.19L75.69-26.19Q74.25-26.19 73.46-27.07L73.46-27.07L73.46-27.07Q72.67-27.95 72.67-29.20L72.67-29.20L72.67-29.20Q72.67-30.60 73.46-31.50L73.46-31.50L73.46-31.50Q74.25-32.40 75.83-32.40L75.83-32.40ZM91.48-22.95L91.48-22.95L91.48-22.95Q92.79-22.95 94.05-22.68L94.05-22.68L94.05-22.68Q95.31-22.41 96.30-22.05L96.30-22.05L96.30-22.05Q97.47-21.64 98.46-21.20L98.46-21.20L96.93-17.68L96.93-17.68Q96.03-18.09 95.13-18.40L95.13-18.40L95.13-18.40Q94.36-18.68 93.44-18.92L93.44-18.92L93.44-18.92Q92.52-19.17 91.62-19.17L91.62-19.17L91.62-19.17Q90.58-19.17 89.84-18.68L89.84-18.68L89.84-18.68Q89.10-18.18 89.10-17.19L89.10-17.19L89.10-17.19Q89.10-14.63 92.83-13.18L92.83-13.18L92.83-13.18Q94.23-12.64 95.35-12.04L95.35-12.04L95.35-12.04Q96.48-11.43 97.27-10.62L97.27-10.62L97.27-10.62Q98.05-9.81 98.46-8.75L98.46-8.75L98.46-8.75Q98.86-7.69 98.86-6.25L98.86-6.25L98.86-6.25Q98.86-5.00 98.35-3.78L98.35-3.78L98.35-3.78Q97.83-2.56 96.82-1.62L96.82-1.62L96.82-1.62Q95.80-0.67 94.34-0.11L94.34-0.11L94.34-0.11Q92.88 0.45 91.03 0.45L91.03 0.45L91.03 0.45Q89.55 0.45 88.11 0.11L88.11 0.11L88.11 0.11Q86.67-0.22 85.52-0.63L85.52-0.63L85.52-0.63Q84.38-1.03 83.70-1.40L83.70-1.40L83.02-1.71L84.69-5.49L85.27-5.17L85.27-5.17Q85.86-4.81 86.76-4.41L86.76-4.41L86.76-4.41Q87.66-4.00 88.69-3.67L88.69-3.67L88.69-3.67Q89.73-3.33 90.58-3.33L90.58-3.33L90.58-3.33Q92.16-3.33 92.92-3.96L92.92-3.96L92.92-3.96Q93.69-4.59 93.69-5.63L93.69-5.63L93.69-5.63Q93.69-6.79 92.86-7.76L92.86-7.76L92.86-7.76Q92.02-8.73 90.36-9.36L90.36-9.36L90.36-9.36Q86.89-10.66 85.39-12.33L85.39-12.33L85.39-12.33Q83.88-13.99 83.88-16.65L83.88-16.65L83.88-16.65Q83.88-17.91 84.46-19.06L84.46-19.06L84.46-19.06Q85.05-20.20 86.06-21.08L86.06-21.08L86.06-21.08Q87.07-21.96 88.47-22.45L88.47-22.45L88.47-22.45Q89.86-22.95 91.48-22.95ZM121.95-22.41L121.72-9.09L121.72-9.09Q121.72-7.74 121.93-6.61L121.93-6.61L121.93-6.61Q122.13-5.49 122.38-4.39L122.38-4.39L122.38-4.39Q122.62-3.28 122.85-2.16L122.85-2.16L122.85-2.16Q123.07-1.03 123.07 0.32L123.07 0.32L123.07 0.32Q123.07 5.08 120.64 7.42L120.64 7.42L120.64 7.42Q118.21 9.76 114.07 9.76L114.07 9.76L114.07 9.76Q112.72 9.76 111.37 9.52L111.37 9.52L111.37 9.52Q110.02 9.27 108.88 8.96L108.88 8.96L108.88 8.96Q107.73 8.64 106.92 8.32L106.92 8.32L106.92 8.32Q106.11 8.01 105.84 7.88L105.84 7.88L107.10 3.96L107.10 3.96Q107.73 4.23 108.52 4.52L108.52 4.52L108.52 4.52Q109.30 4.81 110.14 5.08L110.14 5.08L110.14 5.08Q110.97 5.35 111.87 5.54L111.87 5.54L111.87 5.54Q112.77 5.71 113.62 5.71L113.62 5.71L113.62 5.71Q116.14 5.71 117.27 4.21L117.27 4.21L117.27 4.21Q118.39 2.70 118.39 0.32L118.39 0.32L118.39 0.32Q118.39-1.84 117.49-4.14L117.49-4.14L117.49-4.14Q116.23-1.75 114.14-0.74L114.14-0.74L114.14-0.74Q112.05 0.27 109.75 0.27L109.75 0.27L109.75 0.27Q106.20 0.27 104.69-1.80L104.69-1.80L104.69-1.80Q103.18-3.87 103.18-7.47L103.18-7.47L103.18-22.41L108.31-22.41L108.31-7.60L108.31-7.60Q108.31-5.71 108.99-4.63L108.99-4.63L108.99-4.63Q109.66-3.55 111.28-3.55L111.28-3.55L111.28-3.55Q112.14-3.55 113.11-4.05L113.11-4.05L113.11-4.05Q114.07-4.54 114.86-5.42L114.86-5.42L114.86-5.42Q115.65-6.30 116.17-7.54L116.17-7.54L116.17-7.54Q116.68-8.78 116.68-10.21L116.68-10.21L116.68-22.41L121.95-22.41ZM151.69-22.41L156.91-22.41L157.00-22.05L157.00-22.05Q157.05-21.64 157.14-21.02L157.14-21.02L157.14-21.02Q157.23-20.38 157.30-19.53L157.30-19.53L157.30-19.53Q157.37-18.68 157.37-17.82L157.37-17.82L157.37-17.82Q157.37-12.82 156.80-9.36L156.80-9.36L156.80-9.36Q156.24-5.89 154.96-3.76L154.96-3.76L154.96-3.76Q153.67-1.62 151.56-0.65L151.56-0.65L151.56-0.65Q149.44 0.32 146.34 0.32L146.34 0.32L146.34 0.32Q141.97 0.32 140.35-3.28L140.35-3.28L140.35-3.28Q139.54-1.44 138.13-0.56L138.13-0.56L138.13-0.56Q136.71 0.32 133.97 0.32L133.97 0.32L133.97 0.32Q130.45 0.32 128.92-1.71L128.92-1.71L128.92-1.71Q127.39-3.73 127.39-7.33L127.39-7.33L127.39-22.41L132.53-22.41L132.53-7.74L132.53-7.74Q132.53-5.85 133.20-4.61L133.20-4.61L133.20-4.61Q133.88-3.38 135.50-3.38L135.50-3.38L135.50-3.38Q137.56-3.38 138.69-5.40L138.69-5.40L138.69-5.40Q139.81-7.42 139.81-12.11L139.81-12.11L139.81-22.41L144.90-22.41L144.90-22.41Q144.85-19.04 144.85-16.16L144.85-16.16L144.85-16.16Q144.85-14.89 144.83-13.63L144.83-13.63L144.83-13.63Q144.81-12.38 144.81-11.25L144.81-11.25L144.81-11.25Q144.81-10.13 144.81-9.20L144.81-9.20L144.81-9.20Q144.81-8.28 144.81-7.74L144.81-7.74L144.81-7.74Q144.81-5.85 145.53-4.61L145.53-4.61L145.53-4.61Q146.25-3.38 147.87-3.38L147.87-3.38L147.87-3.38Q149.44-3.38 150.32-4.59L150.32-4.59L150.32-4.59Q151.20-5.80 151.60-7.76L151.60-7.76L151.60-7.76Q152.01-9.72 152.10-12.22L152.10-12.22L152.10-12.22Q152.19-14.71 152.19-17.28L152.19-17.28L152.19-17.28Q152.19-18.31 152.12-19.24L152.12-19.24L152.12-19.24Q152.06-20.16 151.94-20.88L151.94-20.88L151.94-20.88Q151.83-21.60 151.78-22.00L151.78-22.00L151.69-22.41ZM180.40-21.46L180.40-10.84L180.40-10.84Q180.40-8.14 180.74-6.32L180.74-6.32L180.74-6.32Q181.08-4.50 181.48-3.38L181.48-3.38L181.48-3.38Q181.98-2.02 182.56-1.26L182.56-1.26L178.56 0.36L178.56 0.36Q177.97-0.22 177.48-1.03L177.48-1.03L177.48-1.03Q177.07-1.75 176.71-2.77L176.71-2.77L176.71-2.77Q176.35-3.78 176.26-5.17L176.26-5.17L176.26-5.17Q175.50-2.48 173.81-1.10L173.81-1.10L173.81-1.10Q172.13 0.27 169.24 0.27L169.24 0.27L169.24 0.27Q167.13 0.27 165.58-0.52L165.58-0.52L165.58-0.52Q164.02-1.30 162.99-2.77L162.99-2.77L162.99-2.77Q161.95-4.23 161.46-6.30L161.46-6.30L161.46-6.30Q160.96-8.37 160.96-10.89L160.96-10.89L160.96-10.89Q160.96-13.46 161.75-15.64L161.75-15.64L161.75-15.64Q162.54-17.82 163.96-19.39L163.96-19.39L163.96-19.39Q165.38-20.97 167.35-21.87L167.35-21.87L167.35-21.87Q169.33-22.77 171.72-22.77L171.72-22.77L171.72-22.77Q173.07-22.77 174.53-22.57L174.53-22.57L174.53-22.57Q175.99-22.36 177.25-22.14L177.25-22.14L177.25-22.14Q178.51-21.91 179.39-21.71L179.39-21.71L179.39-21.71Q180.27-21.51 180.40-21.46L180.40-21.46ZM170.10-3.33L170.10-3.33Q171.22-3.33 172.17-4.09L172.17-4.09L172.17-4.09Q173.11-4.86 173.81-6.10L173.81-6.10L173.81-6.10Q174.51-7.33 174.89-8.93L174.89-8.93L174.89-8.93Q175.27-10.53 175.27-12.20L175.27-12.20L175.27-18.68L175.27-18.68Q174.82-18.81 173.92-18.99L173.92-18.99L173.92-18.99Q173.02-19.17 172.30-19.17L172.30-19.17L172.30-19.17Q170.59-19.17 169.49-18.59L169.49-18.59L169.49-18.59Q168.39-18 167.71-16.96L167.71-16.96L167.71-16.96Q167.04-15.93 166.77-14.49L166.77-14.49L166.77-14.49Q166.50-13.05 166.50-11.34L166.50-11.34L166.50-11.34Q166.50-9.76 166.59-8.32L166.59-8.32L166.59-8.32Q166.68-6.88 167.06-5.76L167.06-5.76L167.06-5.76Q167.44-4.63 168.16-3.98L168.16-3.98L168.16-3.98Q168.88-3.33 170.10-3.33L170.10-3.33ZM204.57 0L199.48 0L199.48-14.54L199.48-14.54Q199.48-16.43 198.81-17.57L198.81-17.57L198.81-17.57Q198.13-18.72 196.51-18.72L196.51-18.72L196.51-18.72Q195.48-18.72 194.51-18.20L194.51-18.20L194.51-18.20Q193.54-17.68 192.78-16.70L192.78-16.70L192.78-16.70Q192.01-15.71 191.54-14.29L191.54-14.29L191.54-14.29Q191.07-12.87 191.07-11.12L191.07-11.12L191.07 0L185.94 0L185.94-11.34L185.94-11.34Q185.94-14.04 185.58-15.86L185.58-15.86L185.58-15.86Q185.22-17.68 184.81-18.81L184.81-18.81L184.81-18.81Q184.32-20.11 183.73-20.93L183.73-20.93L187.78-22.54L187.78-22.54Q188.23-22.05 188.68-21.33L188.68-21.33L188.68-21.33Q189.04-20.70 189.40-19.78L189.40-19.78L189.40-19.78Q189.76-18.86 189.99-17.68L189.99-17.68L189.99-17.68Q191.16-20.38 193.36-21.58L193.36-21.58L193.36-21.58Q195.57-22.77 198.00-22.77L198.00-22.77L198.00-22.77Q201.46-22.77 203.02-20.68L203.02-20.68L203.02-20.68Q204.57-18.59 204.57-15.03L204.57-15.03L204.57 0ZM214.97 0.18L214.97 0.18Q212.58 0.18 211.32-1.24L211.32-1.24L211.32-1.24Q210.06-2.65 210.06-4.91L210.06-4.91L210.06-22.41L215.19-22.41L215.19-5.35L215.19-5.35Q215.19-4.32 215.50-3.96L215.50-3.96L215.50-3.96Q215.82-3.60 216.45-3.60L216.45-3.60L216.45-3.60Q216.63-3.60 216.83-3.60L216.83-3.60L216.83-3.60Q217.03-3.60 217.22-3.65L217.22-3.65L217.22-3.65Q217.40-3.65 217.62-3.69L217.62-3.69L218.16-0.45L218.16-0.45Q217.84-0.27 217.35-0.14L217.35-0.14L217.35-0.14Q216.94 0 216.34 0.09L216.34 0.09L216.34 0.09Q215.73 0.18 214.97 0.18L214.97 0.18ZM212.72-32.40L212.72-32.40Q214.16-32.40 214.92-31.54L214.92-31.54L214.92-31.54Q215.69-30.69 215.69-29.34L215.69-29.34L215.69-29.34Q215.69-27.99 214.90-27.09L214.90-27.09L214.90-27.09Q214.11-26.19 212.58-26.19L212.58-26.19L212.58-26.19Q211.14-26.19 210.35-27.07L210.35-27.07L210.35-27.07Q209.56-27.95 209.56-29.20L209.56-29.20L209.56-29.20Q209.56-30.60 210.35-31.50L210.35-31.50L210.35-31.50Q211.14-32.40 212.72-32.40L212.72-32.40ZM220.41-10.66L220.41-10.66Q220.41-13.68 221.24-15.97L221.24-15.97L221.24-15.97Q222.08-18.27 223.54-19.82L223.54-19.82L223.54-19.82Q225-21.38 226.98-22.16L226.98-22.16L226.98-22.16Q228.96-22.95 231.25-22.95L231.25-22.95L231.25-22.95Q233.28-22.95 234.70-22.45L234.70-22.45L234.70-22.45Q236.12-21.96 237.02-21.11L237.02-21.11L237.02-21.11Q237.92-20.25 238.34-19.08L238.34-19.08L238.34-19.08Q238.77-17.91 238.77-16.56L238.77-16.56L238.77-16.56Q238.77-14.94 237.87-13.48L237.87-13.48L237.87-13.48Q236.97-12.01 235.28-10.91L235.28-10.91L235.28-10.91Q233.59-9.81 231.21-9.16L231.21-9.16L231.21-9.16Q228.83-8.50 225.86-8.46L225.86-8.46L225.86-8.46Q225.99-7.42 226.28-6.50L226.28-6.50L226.28-6.50Q226.58-5.58 227.14-4.88L227.14-4.88L227.14-4.88Q227.70-4.18 228.60-3.78L228.60-3.78L228.60-3.78Q229.50-3.38 230.85-3.38L230.85-3.38L230.85-3.38Q231.84-3.38 232.97-3.60L232.97-3.60L232.97-3.60Q234.09-3.82 235.03-4.14L235.03-4.14L235.03-4.14Q236.16-4.50 237.24-4.95L237.24-4.95L238.59-1.75L238.59-1.75Q237.42-1.17 236.07-0.72L236.07-0.72L236.07-0.72Q234.90-0.32 233.37 0L233.37 0L233.37 0Q231.84 0.32 230.13 0.32L230.13 0.32L230.13 0.32Q227.52 0.32 225.68-0.47L225.68-0.47L225.68-0.47Q223.83-1.26 222.66-2.70L222.66-2.70L222.66-2.70Q221.49-4.14 220.95-6.17L220.95-6.17L220.95-6.17Q220.41-8.19 220.41-10.66L220.41-10.66ZM230.85-19.44L230.85-19.44Q229.37-19.44 228.40-18.74L228.40-18.74L228.40-18.74Q227.43-18.04 226.84-16.94L226.84-16.94L226.84-16.94Q226.26-15.84 226.01-14.47L226.01-14.47L226.01-14.47Q225.77-13.09 225.72-11.70L225.72-11.70L225.72-11.70Q227.88-11.79 229.39-12.26L229.39-12.26L229.39-12.26Q230.90-12.73 231.84-13.43L231.84-13.43L231.84-13.43Q232.78-14.13 233.21-14.94L233.21-14.94L233.21-14.94Q233.64-15.75 233.64-16.56L233.64-16.56L233.64-16.56Q233.64-17.86 232.88-18.65L232.88-18.65L232.88-18.65Q232.11-19.44 230.85-19.44L230.85-19.44ZM268.56-30.60L266.36-27.68L266.36-27.68Q266.22-27.81 265.52-28.17L265.52-28.17L265.52-28.17Q264.82-28.53 264.19-28.53L264.19-28.53L264.19-28.53Q263.79-28.53 263.20-28.42L263.20-28.42L263.20-28.42Q262.62-28.30 262.08-27.92L262.08-27.92L262.08-27.92Q261.54-27.54 261.16-26.82L261.16-26.82L261.16-26.82Q260.77-26.10 260.77-24.93L260.77-24.93L260.77-24.93Q260.77-24.43 260.84-23.80L260.84-23.80L260.84-23.80Q260.91-23.18 261.13-22.41L261.13-22.41L266.71-22.41L266.08-18.77L261.40-18.77L261.40-1.13L261.40-1.13Q261.40 1.57 260.71 3.40L260.71 3.40L260.71 3.40Q260.01 5.22 258.88 6.46L258.88 6.46L258.88 6.46Q257.76 7.69 256.39 8.53L256.39 8.53L256.39 8.53Q255.01 9.36 253.66 10.04L253.66 10.04L251.59 6.61L251.59 6.61Q253.26 5.76 254.21 4.79L254.21 4.79L254.21 4.79Q255.15 3.82 255.62 2.86L255.62 2.86L255.62 2.86Q256.10 1.89 256.19 0.99L256.19 0.99L256.19 0.99Q256.27 0.09 256.27-0.63L256.27-0.63L256.27-18.77L252.22-18.77L252.22-22.41L256.14-22.41L256.14-22.41Q255.96-23.09 255.89-23.80L255.89-23.80L255.89-23.80Q255.82-24.52 255.82-25.15L255.82-25.15L255.82-25.15Q255.82-26.95 256.48-28.35L256.48-28.35L256.48-28.35Q257.13-29.74 258.23-30.64L258.23-30.64L258.23-30.64Q259.33-31.54 260.80-32.02L260.80-32.02L260.80-32.02Q262.26-32.49 263.83-32.49L263.83-32.49L263.83-32.49Q265.59-32.49 266.71-31.93L266.71-31.93L266.71-31.93Q267.84-31.36 268.56-30.60L268.56-30.60ZM279.72-17.73L279.72-17.73Q278.91-17.73 278.10-17.32L278.10-17.32L278.10-17.32Q277.29-16.92 276.66-16.22L276.66-16.22L276.66-16.22Q276.03-15.52 275.63-14.54L275.63-14.54L275.63-14.54Q275.22-13.54 275.22-12.33L275.22-12.33L275.22 0L270.09 0L270.09-11.34L270.09-11.34Q270.09-14.04 269.73-15.86L269.73-15.86L269.73-15.86Q269.37-17.68 268.96-18.81L268.96-18.81L268.96-18.81Q268.47-20.11 267.88-20.93L267.88-20.93L271.94-22.54L271.94-22.54Q272.34-22.05 272.79-21.33L272.79-21.33L272.79-21.33Q273.15-20.70 273.51-19.84L273.51-19.84L273.51-19.84Q273.87-18.99 274.09-17.82L274.09-17.82L274.09-17.82Q275.00-20.43 276.70-21.58L276.70-21.58L276.70-21.58Q278.41-22.72 280.57-22.72L280.57-22.72L280.57-22.72Q281.61-22.72 282.51-22.48L282.51-22.48L282.51-22.48Q283.41-22.23 283.37-22.23L283.37-22.23L281.93-17.23L281.93-17.23Q281.97-17.23 281.41-17.48L281.41-17.48L281.41-17.48Q280.84-17.73 279.72-17.73L279.72-17.73ZM303.03-21.46L303.03-10.84L303.03-10.84Q303.03-8.14 303.37-6.32L303.37-6.32L303.37-6.32Q303.70-4.50 304.11-3.38L304.11-3.38L304.11-3.38Q304.60-2.02 305.19-1.26L305.19-1.26L301.19 0.36L301.19 0.36Q300.60-0.22 300.10-1.03L300.10-1.03L300.10-1.03Q299.70-1.75 299.34-2.77L299.34-2.77L299.34-2.77Q298.98-3.78 298.89-5.17L298.89-5.17L298.89-5.17Q298.13-2.48 296.44-1.10L296.44-1.10L296.44-1.10Q294.75 0.27 291.87 0.27L291.87 0.27L291.87 0.27Q289.75 0.27 288.20-0.52L288.20-0.52L288.20-0.52Q286.65-1.30 285.62-2.77L285.62-2.77L285.62-2.77Q284.58-4.23 284.08-6.30L284.08-6.30L284.08-6.30Q283.59-8.37 283.59-10.89L283.59-10.89L283.59-10.89Q283.59-13.46 284.38-15.64L284.38-15.64L284.38-15.64Q285.16-17.82 286.58-19.39L286.58-19.39L286.58-19.39Q288-20.97 289.98-21.87L289.98-21.87L289.98-21.87Q291.96-22.77 294.34-22.77L294.34-22.77L294.34-22.77Q295.69-22.77 297.16-22.57L297.16-22.57L297.16-22.57Q298.62-22.36 299.88-22.14L299.88-22.14L299.88-22.14Q301.14-21.91 302.02-21.71L302.02-21.71L302.02-21.71Q302.89-21.51 303.03-21.46L303.03-21.46ZM292.72-3.33L292.72-3.33Q293.85-3.33 294.79-4.09L294.79-4.09L294.79-4.09Q295.74-4.86 296.44-6.10L296.44-6.10L296.44-6.10Q297.13-7.33 297.52-8.93L297.52-8.93L297.52-8.93Q297.90-10.53 297.90-12.20L297.90-12.20L297.90-18.68L297.90-18.68Q297.45-18.81 296.55-18.99L296.55-18.99L296.55-18.99Q295.65-19.17 294.93-19.17L294.93-19.17L294.93-19.17Q293.22-19.17 292.12-18.59L292.12-18.59L292.12-18.59Q291.01-18 290.34-16.96L290.34-16.96L290.34-16.96Q289.66-15.93 289.39-14.49L289.39-14.49L289.39-14.49Q289.13-13.05 289.13-11.34L289.13-11.34L289.13-11.34Q289.13-9.76 289.21-8.32L289.21-8.32L289.21-8.32Q289.31-6.88 289.69-5.76L289.69-5.76L289.69-5.76Q290.07-4.63 290.79-3.98L290.79-3.98L290.79-3.98Q291.51-3.33 292.72-3.33L292.72-3.33ZM311.18 7.88L312.44 3.96L312.44 3.96Q313.11 4.23 313.88 4.52L313.88 4.52L313.88 4.52Q314.64 4.81 315.50 5.08L315.50 5.08L315.50 5.08Q316.35 5.35 317.23 5.54L317.23 5.54L317.23 5.54Q318.11 5.71 318.96 5.71L318.96 5.71L318.96 5.71Q321.48 5.71 322.61 4.21L322.61 4.21L322.61 4.21Q323.73 2.70 323.73 0.32L323.73 0.32L323.73 0.32Q323.73-2.02 322.74-4.41L322.74-4.41L322.74-4.41Q321.97-2.11 320.33-0.92L320.33-0.92L320.33-0.92Q318.69 0.27 315.99 0.27L315.99 0.27L315.99 0.27Q313.88 0.27 312.32-0.52L312.32-0.52L312.32-0.52Q310.77-1.30 309.74-2.77L309.74-2.77L309.74-2.77Q308.70-4.23 308.20-6.30L308.20-6.30L308.20-6.30Q307.71-8.37 307.71-10.89L307.71-10.89L307.71-10.89Q307.71-13.46 308.50-15.64L308.50-15.64L308.50-15.64Q309.28-17.82 310.70-19.39L310.70-19.39L310.70-19.39Q312.12-20.97 314.10-21.87L314.10-21.87L314.10-21.87Q316.08-22.77 318.46-22.77L318.46-22.77L318.46-22.77Q319.55-22.77 320.78-22.63L320.78-22.63L320.78-22.63Q322.02-22.50 323.21-22.30L323.21-22.30L323.21-22.30Q324.40-22.09 325.46-21.87L325.46-21.87L325.46-21.87Q326.52-21.64 327.28-21.46L327.28-21.46L327.06-9.09L327.06-9.09Q327.01-7.74 327.22-6.61L327.22-6.61L327.22-6.61Q327.42-5.49 327.69-4.39L327.69-4.39L327.69-4.39Q327.96-3.28 328.19-2.16L328.19-2.16L328.19-2.16Q328.41-1.03 328.41 0.32L328.41 0.32L328.41 0.32Q328.41 5.08 325.98 7.42L325.98 7.42L325.98 7.42Q323.55 9.76 319.41 9.76L319.41 9.76L319.41 9.76Q318.06 9.76 316.71 9.52L316.71 9.52L316.71 9.52Q315.36 9.27 314.21 8.96L314.21 8.96L314.21 8.96Q313.06 8.64 312.25 8.32L312.25 8.32L312.25 8.32Q311.44 8.01 311.18 7.88L311.18 7.88ZM316.84-3.33L316.84-3.33Q317.93-3.33 318.85-4.05L318.85-4.05L318.85-4.05Q319.77-4.77 320.49-5.96L320.49-5.96L320.49-5.96Q321.21-7.15 321.62-8.69L321.62-8.69L321.62-8.69Q322.02-10.21 322.02-11.83L322.02-11.83L322.02-18.68L322.02-18.68Q321.57-18.81 320.67-18.99L320.67-18.99L320.67-18.99Q319.77-19.17 319.05-19.17L319.05-19.17L319.05-19.17Q317.34-19.17 316.24-18.59L316.24-18.59L316.24-18.59Q315.13-18 314.46-16.96L314.46-16.96L314.46-16.96Q313.78-15.93 313.51-14.49L313.51-14.49L313.51-14.49Q313.25-13.05 313.25-11.34L313.25-11.34L313.25-11.34Q313.25-9.76 313.33-8.32L313.33-8.32L313.33-8.32Q313.43-6.88 313.81-5.76L313.81-5.76L313.81-5.76Q314.19-4.63 314.91-3.98L314.91-3.98L314.91-3.98Q315.63-3.33 316.84-3.33L316.84-3.33ZM363.28 0L358.20 0L358.20-14.67L358.20-14.67Q358.20-16.56 357.62-17.66L357.62-17.66L357.62-17.66Q357.03-18.77 355.59-18.77L355.59-18.77L355.59-18.77Q354.73-18.77 353.86-18.29L353.86-18.29L353.86-18.29Q352.98-17.82 352.26-16.92L352.26-16.92L352.26-16.92Q351.54-16.02 351.09-14.76L351.09-14.76L351.09-14.76Q350.64-13.50 350.64-11.97L350.64-11.97L350.64 0L345.56 0L345.56-14.67L345.56-14.67Q345.56-16.56 344.97-17.66L344.97-17.66L344.97-17.66Q344.38-18.77 342.94-18.77L342.94-18.77L342.94-18.77Q342.04-18.77 341.17-18.25L341.17-18.25L341.17-18.25Q340.29-17.73 339.59-16.74L339.59-16.74L339.59-16.74Q338.89-15.75 338.47-14.33L338.47-14.33L338.47-14.33Q338.04-12.91 338.04-11.16L338.04-11.16L338.04 0L332.91 0L332.91-11.34L332.91-11.34Q332.91-14.04 332.55-15.86L332.55-15.86L332.55-15.86Q332.19-17.68 331.78-18.81L331.78-18.81L331.78-18.81Q331.29-20.11 330.70-20.93L330.70-20.93L334.75-22.54L334.75-22.54Q335.20-22.05 335.65-21.33L335.65-21.33L335.65-21.33Q336.01-20.70 336.38-19.78L336.38-19.78L336.38-19.78Q336.73-18.86 336.96-17.68L336.96-17.68L336.96-17.68Q338.08-20.38 340.13-21.58L340.13-21.58L340.13-21.58Q342.18-22.77 344.47-22.77L344.47-22.77L344.47-22.77Q346.77-22.77 348.05-21.60L348.05-21.60L348.05-21.60Q349.33-20.43 349.96-18.59L349.96-18.59L349.96-18.59Q351.18-20.84 353.09-21.80L353.09-21.80L353.09-21.80Q355.00-22.77 357.12-22.77L357.12-22.77L357.12-22.77Q358.88-22.77 360.07-22.21L360.07-22.21L360.07-22.21Q361.26-21.64 361.96-20.63L361.96-20.63L361.96-20.63Q362.65-19.62 362.97-18.20L362.97-18.20L362.97-18.20Q363.28-16.79 363.28-15.03L363.28-15.03L363.28 0ZM367.56-10.66L367.56-10.66Q367.56-13.68 368.39-15.97L368.39-15.97L368.39-15.97Q369.23-18.27 370.69-19.82L370.69-19.82L370.69-19.82Q372.15-21.38 374.13-22.16L374.13-22.16L374.13-22.16Q376.11-22.95 378.41-22.95L378.41-22.95L378.41-22.95Q380.43-22.95 381.85-22.45L381.85-22.45L381.85-22.45Q383.26-21.96 384.17-21.11L384.17-21.11L384.17-21.11Q385.06-20.25 385.49-19.08L385.49-19.08L385.49-19.08Q385.92-17.91 385.92-16.56L385.92-16.56L385.92-16.56Q385.92-14.94 385.02-13.48L385.02-13.48L385.02-13.48Q384.12-12.01 382.43-10.91L382.43-10.91L382.43-10.91Q380.75-9.81 378.36-9.16L378.36-9.16L378.36-9.16Q375.98-8.50 373.00-8.46L373.00-8.46L373.00-8.46Q373.14-7.42 373.43-6.50L373.43-6.50L373.43-6.50Q373.73-5.58 374.29-4.88L374.29-4.88L374.29-4.88Q374.85-4.18 375.75-3.78L375.75-3.78L375.75-3.78Q376.65-3.38 378-3.38L378-3.38L378-3.38Q378.99-3.38 380.12-3.60L380.12-3.60L380.12-3.60Q381.24-3.82 382.19-4.14L382.19-4.14L382.19-4.14Q383.31-4.50 384.39-4.95L384.39-4.95L385.74-1.75L385.74-1.75Q384.57-1.17 383.22-0.72L383.22-0.72L383.22-0.72Q382.05-0.32 380.52 0L380.52 0L380.52 0Q378.99 0.32 377.28 0.32L377.28 0.32L377.28 0.32Q374.67 0.32 372.82-0.47L372.82-0.47L372.82-0.47Q370.98-1.26 369.81-2.70L369.81-2.70L369.81-2.70Q368.64-4.14 368.10-6.17L368.10-6.17L368.10-6.17Q367.56-8.19 367.56-10.66L367.56-10.66ZM378-19.44L378-19.44Q376.51-19.44 375.55-18.74L375.55-18.74L375.55-18.74Q374.58-18.04 374.00-16.94L374.00-16.94L374.00-16.94Q373.41-15.84 373.16-14.47L373.16-14.47L373.16-14.47Q372.92-13.09 372.87-11.70L372.87-11.70L372.87-11.70Q375.03-11.79 376.54-12.26L376.54-12.26L376.54-12.26Q378.05-12.73 378.99-13.43L378.99-13.43L378.99-13.43Q379.94-14.13 380.36-14.94L380.36-14.94L380.36-14.94Q380.79-15.75 380.79-16.56L380.79-16.56L380.79-16.56Q380.79-17.86 380.03-18.65L380.03-18.65L380.03-18.65Q379.26-19.44 378-19.44L378-19.44ZM409.23 0L404.15 0L404.15-14.54L404.15-14.54Q404.15-16.43 403.47-17.57L403.47-17.57L403.47-17.57Q402.80-18.72 401.18-18.72L401.18-18.72L401.18-18.72Q400.14-18.72 399.17-18.20L399.17-18.20L399.17-18.20Q398.21-17.68 397.44-16.70L397.44-16.70L397.44-16.70Q396.68-15.71 396.20-14.29L396.20-14.29L396.20-14.29Q395.73-12.87 395.73-11.12L395.73-11.12L395.73 0L390.60 0L390.60-11.34L390.60-11.34Q390.60-14.04 390.24-15.86L390.24-15.86L390.24-15.86Q389.88-17.68 389.48-18.81L389.48-18.81L389.48-18.81Q388.98-20.11 388.40-20.93L388.40-20.93L392.45-22.54L392.45-22.54Q392.90-22.05 393.35-21.33L393.35-21.33L393.35-21.33Q393.71-20.70 394.07-19.78L394.07-19.78L394.07-19.78Q394.43-18.86 394.65-17.68L394.65-17.68L394.65-17.68Q395.82-20.38 398.03-21.58L398.03-21.58L398.03-21.58Q400.23-22.77 402.66-22.77L402.66-22.77L402.66-22.77Q406.13-22.77 407.68-20.68L407.68-20.68L407.68-20.68Q409.23-18.59 409.23-15.03L409.23-15.03L409.23 0ZM412.43-18.77L412.43-22.41L416.48-22.41L417.38-27.68L421.61-28.62L421.61-22.41L427.14-22.41L426.51-18.77L421.61-18.77L421.61-5.44L421.61-5.44Q421.61-4.27 422.24-3.94L422.24-3.94L422.24-3.94Q422.87-3.60 423.63-3.60L423.63-3.60L423.63-3.60Q424.26-3.60 424.89-3.69L424.89-3.69L424.89-3.69Q425.52-3.78 426.02-3.92L426.02-3.92L426.02-3.92Q426.60-4.05 427.14-4.23L427.14-4.23L428.00-0.85L427.59-0.72L427.59-0.72Q427.19-0.54 426.40-0.34L426.40-0.34L426.40-0.34Q425.61-0.14 424.55 0.02L424.55 0.02L424.55 0.02Q423.50 0.18 422.24 0.18L422.24 0.18L422.24 0.18Q420.98 0.18 419.92-0.09L419.92-0.09L419.92-0.09Q418.86-0.36 418.10-0.97L418.10-0.97L418.10-0.97Q417.33-1.57 416.90-2.52L416.90-2.52L416.90-2.52Q416.48-3.46 416.48-4.86L416.48-4.86L416.48-18.77L412.43-18.77ZM439.38-22.95L439.38-22.95Q444.56-22.95 446.90-19.89L446.90-19.89L446.90-19.89Q449.24-16.83 449.24-11.47L449.24-11.47L449.24-11.47Q449.24-8.96 448.61-6.77L448.61-6.77L448.61-6.77Q447.98-4.59 446.69-2.99L446.69-2.99L446.69-2.99Q445.41-1.40 443.48-0.47L443.48-0.47L443.48-0.47Q441.54 0.45 438.98 0.45L438.98 0.45L438.98 0.45Q436.41 0.45 434.54-0.34L434.54-0.34L434.54-0.34Q432.68-1.13 431.46-2.61L431.46-2.61L431.46-2.61Q430.25-4.09 429.68-6.21L429.68-6.21L429.68-6.21Q429.12-8.32 429.12-10.98L429.12-10.98L429.12-10.98Q429.12-13.54 429.75-15.73L429.75-15.73L429.75-15.73Q430.38-17.91 431.66-19.51L431.66-19.51L431.66-19.51Q432.94-21.11 434.88-22.03L434.88-22.03L434.88-22.03Q436.81-22.95 439.38-22.95L439.38-22.95ZM438.93-19.17L438.93-19.17Q437.63-19.17 436.79-18.59L436.79-18.59L436.79-18.59Q435.96-18 435.49-16.94L435.49-16.94L435.49-16.94Q435.02-15.88 434.84-14.47L434.84-14.47L434.84-14.47Q434.66-13.05 434.66-11.43L434.66-11.43L434.66-11.43Q434.66-9.76 434.86-8.28L434.86-8.28L434.86-8.28Q435.06-6.79 435.60-5.69L435.60-5.69L435.60-5.69Q436.14-4.59 437.06-3.96L437.06-3.96L437.06-3.96Q437.99-3.33 439.43-3.33L439.43-3.33L439.43-3.33Q440.73-3.33 441.56-3.92L441.56-3.92L441.56-3.92Q442.40-4.50 442.87-5.56L442.87-5.56L442.87-5.56Q443.34-6.61 443.52-8.01L443.52-8.01L443.52-8.01Q443.70-9.40 443.70-11.03L443.70-11.03L443.70-11.03Q443.70-12.69 443.50-14.17L443.50-14.17L443.50-14.17Q443.30-15.66 442.75-16.79L442.75-16.79L442.75-16.79Q442.22-17.91 441.29-18.54L441.29-18.54L441.29-18.54Q440.37-19.17 438.93-19.17L438.93-19.17ZM438.75-24.21L436.55-26.55L444.19-35.05L447.62-31.86L447.62-31.86Q446.26-30.20 444.71-28.80L444.71-28.80L444.71-28.80Q443.16-27.40 441.86-26.37L441.86-26.37L441.86-26.37Q440.32-25.20 438.75-24.21L438.75-24.21ZM477.81-22.41L483.03-22.41L483.12-22.05L483.12-22.05Q483.17-21.64 483.25-21.02L483.25-21.02L483.25-21.02Q483.35-20.38 483.41-19.53L483.41-19.53L483.41-19.53Q483.48-18.68 483.48-17.82L483.48-17.82L483.48-17.82Q483.48-12.82 482.92-9.36L482.92-9.36L482.92-9.36Q482.36-5.89 481.07-3.76L481.07-3.76L481.07-3.76Q479.79-1.62 477.68-0.65L477.68-0.65L477.68-0.65Q475.56 0.32 472.45 0.32L472.45 0.32L472.45 0.32Q468.09 0.32 466.47-3.28L466.47-3.28L466.47-3.28Q465.66-1.44 464.24-0.56L464.24-0.56L464.24-0.56Q462.82 0.32 460.08 0.32L460.08 0.32L460.08 0.32Q456.57 0.32 455.04-1.71L455.04-1.71L455.04-1.71Q453.51-3.73 453.51-7.33L453.51-7.33L453.51-22.41L458.64-22.41L458.64-7.74L458.64-7.74Q458.64-5.85 459.31-4.61L459.31-4.61L459.31-4.61Q459.99-3.38 461.61-3.38L461.61-3.38L461.61-3.38Q463.68-3.38 464.81-5.40L464.81-5.40L464.81-5.40Q465.93-7.42 465.93-12.11L465.93-12.11L465.93-22.41L471.01-22.41L471.01-22.41Q470.97-19.04 470.97-16.16L470.97-16.16L470.97-16.16Q470.97-14.89 470.95-13.63L470.95-13.63L470.95-13.63Q470.93-12.38 470.93-11.25L470.93-11.25L470.93-11.25Q470.93-10.13 470.93-9.20L470.93-9.20L470.93-9.20Q470.93-8.28 470.93-7.74L470.93-7.74L470.93-7.74Q470.93-5.85 471.64-4.61L471.64-4.61L471.64-4.61Q472.37-3.38 473.99-3.38L473.99-3.38L473.99-3.38Q475.56-3.38 476.44-4.59L476.44-4.59L476.44-4.59Q477.31-5.80 477.72-7.76L477.72-7.76L477.72-7.76Q478.13-9.72 478.21-12.22L478.21-12.22L478.21-12.22Q478.31-14.71 478.31-17.28L478.31-17.28L478.31-17.28Q478.31-18.31 478.24-19.24L478.24-19.24L478.24-19.24Q478.17-20.16 478.06-20.88L478.06-20.88L478.06-20.88Q477.94-21.60 477.90-22.00L477.90-22.00L477.81-22.41Z" fill="#ffd5af"></path></g></g><style>text {
  font-size: 64px;
  font-family: Arial Black;
  dominant-baseline: central;
  text-anchor: middle;
}</style></svg>